<?xml version="1.0" standalone="no"?>
<!DOCTYPE svg PUBLIC "-//W3C//DTD SVG 1.1//EN" "http://www.w3.org/Graphics/SVG/1.1/DTD/svg11.dtd" >
<svg xmlns="http://www.w3.org/2000/svg">
<metadata></metadata>
<defs>
<font id="fenixregular" horiz-adv-x="1036" >
<font-face units-per-em="2048" ascent="1638" descent="-410" />
<missing-glyph horiz-adv-x="450" />
<glyph unicode="&#xfb01;" horiz-adv-x="1130" d="M47 45l92 39q37 14 50.5 30.5t13.5 47.5v663l-144 -2l-12 45l156 70q4 203 118.5 337t319.5 134t328 -147l-123 -109l-37 10q-27 41 -86 76q-63 37 -162.5 37t-152.5 -43q-39 -61 -39 -311l540 16l41 -16v-811l162 -66l-12 -45h-459l-12 45l92 39q37 14 50 30.5t13 47.5 v659l-415 6v-716l161 -66l-12 -45h-459z" />
<glyph unicode="&#xfb02;" horiz-adv-x="1134" d="M47 45l92 39q37 14 50.5 30.5t13.5 47.5v663l-144 -2l-12 45l156 70q0 197 124 329t281 140q20 2 78.5 2t149.5 -25l73 25l41 -16v-1282l162 -66l-12 -45h-459l-12 45l92 39q37 14 50 30.5t13 47.5v1079q-94 25 -158.5 25t-125 -7.5t-92.5 -37.5q-39 -61 -39 -299h223 l22 -25l-20 -78l-225 8v-716l161 -66l-12 -45h-459z" />
<glyph unicode="&#xfb03;" horiz-adv-x="1691" d="M47 45l92 39q37 14 50.5 30.5t13.5 47.5v663l-144 -2l-12 45l156 70q0 201 123 330q133 141 350 141q131 0 293 -51q98 51 225 51q213 0 336 -147l-123 -109l-37 10q-27 41 -86 76q-63 37 -162.5 37t-152.5 -43q-39 -61 -39 -311l540 16l41 -16v-811l162 -66l-12 -45 h-459l-12 45l92 39q37 14 50.5 30.5t13.5 47.5v659l-416 6v-716l162 -66l-13 -45h-458l-13 45l92 39q37 14 50.5 30.5t13.5 47.5v659l-395 6v-725l141 -57l-12 -45h-439zM369 922h395q0 201 82 323q-74 31 -199 31q-164 0 -239 -55q-39 -61 -39 -299z" />
<glyph unicode="&#xfb04;" horiz-adv-x="1695" d="M47 45l92 39q37 14 50.5 30.5t13.5 47.5v663l-144 -2l-12 45l156 70q0 201 123 330q133 141 348 141q139 0 313 -57q106 55 223 55t187 -23l73 25l41 -16v-1282l162 -66l-12 -45h-459l-12 45l92 39q37 14 50.5 30.5t13.5 47.5v1079q-94 25 -159 25t-125.5 -7.5 t-92.5 -37.5q-39 -61 -39 -299h223l23 -25l-21 -78l-225 8v-716l162 -66l-13 -45h-458l-13 45l92 39q37 14 50.5 30.5t13.5 47.5v659l-395 6v-725l141 -57l-12 -45h-439zM369 922h395q0 190 96 317q-94 35 -236.5 35t-215.5 -53q-39 -61 -39 -299z" />
<glyph horiz-adv-x="0" />
<glyph unicode="&#xd;" horiz-adv-x="681" />
<glyph unicode=" "  horiz-adv-x="450" />
<glyph unicode="&#x09;" horiz-adv-x="450" />
<glyph unicode="&#xa0;" horiz-adv-x="450" />
<glyph unicode="!" horiz-adv-x="501" d="M141 95q0 48 32 81t80 33t81 -33t33 -81t-33 -79.5t-81 -31.5t-80 31.5t-32 79.5zM145 1389l189 20l24 -23l-69 -995l-51 -8l-27 4z" />
<glyph unicode="&#x22;" horiz-adv-x="657" d="M92 1372l156 21l24 -23l-57 -424l-70 -8zM389 1372l156 21l24 -23l-57 -424l-70 -8z" />
<glyph unicode="#" horiz-adv-x="1226" d="M61 430l35 80h246l43 307q-115 2 -246 2l-20 25l37 80h241l49 362l115 21l23 -23l-56 -360l244 4l47 358l115 21l22 -23l-55 -354l246 4l18 -25l-37 -96q-104 0 -243 2l-41 -301l243 4l19 -24l-35 -95q-104 0 -244 2l-45 -356l-116 -20l-21 22q27 186 53 354 q-80 2 -241 2l-47 -358l-117 -20l-21 22l54 356q-115 2 -246 3zM471 510q84 2 244 2l41 303q-80 2 -244 2z" />
<glyph unicode="$" horiz-adv-x="944" d="M61 258l121 195l49 -13l9 -168q92 -57 241 -57q211 0 234 139q2 14 2 27q0 123 -189 182l-223 76q-98 33 -152.5 109.5t-54.5 181.5q0 141 95.5 221t236.5 94l-22 240l122 20l25 -22l-23 -236q178 -10 318 -143l-129 -186l-47 14l-21 174q-51 29 -184 29t-190 -68 q-27 -33 -27 -82q0 -129 135 -174l229 -78q135 -45 199 -137t64 -186q0 -143 -117 -230q-94 -68 -232 -82l27 -256l-123 -20l-24 22l26 252q-133 6 -230 56.5t-145 105.5z" />
<glyph unicode="%" horiz-adv-x="1452" d="M70 986q0 161 89 253t209.5 92t199.5 -81t79 -241.5t-88 -243.5t-212 -83t-200.5 71.5t-76.5 232.5zM176 47q496 629 938 1229l131 31l25 -23q-496 -629 -938 -1229l-131 -30zM197 1018q0 -240 174 -240q66 0 110 23q37 80 37 192q0 242 -172 242q-66 0 -110 -23 q-39 -81 -39 -194zM807 304q0 161 89 253t210 92t199.5 -81t78.5 -241.5t-88 -243.5t-211.5 -83t-200.5 71.5t-77 232.5zM934 336q0 -240 174 -240q66 0 111 23q37 80 36 192q0 242 -172 242q-66 0 -110 -23q-39 -81 -39 -194z" />
<glyph unicode="&#x26;" horiz-adv-x="1390" d="M86 309q0 119 70.5 210t195.5 186q-92 121 -133 200.5t-41 161.5q0 135 102.5 208t243 73t230.5 -66q96 -70 96 -195q0 -156 -186 -294l-111 -82l192 -244q12 -14 46 -58t70 -89t67 -84q57 66 57 152.5t-50 159.5t-120 89l-22 25l24 79q213 0 432 13l72 4l22 -25 l-22 -106q-172 4 -317 6q111 -104 107.5 -235.5t-114.5 -239.5q68 -70 115 -89.5t82 -19.5t59 4l4 -53l-200 -82q-82 39 -187 150q-156 -84 -343 -84t-314 84t-127 241zM258 339q0 -95 86 -170t223 -75q121 0 232 49q-63 74 -209 258l-172 222q-57 -43 -107 -111 q-53 -78 -53 -173zM319 1110q0 -59 41 -132t132 -187l104 86q104 86 104 178q0 72 -49 123q-57 61 -153.5 61t-153.5 -37q-25 -33 -25 -92z" />
<glyph unicode="'" horiz-adv-x="360" d="M92 1372l156 21l24 -23l-57 -424l-70 -8z" />
<glyph unicode="(" horiz-adv-x="583" d="M76 598q0 178 42 338t98 260t128 184q102 117 191 172l28 -34q-322 -367 -321.5 -914t321.5 -913l-28 -35q-41 27 -78 56.5t-114 114.5t-129 181t-95 254t-43 336z" />
<glyph unicode=")" horiz-adv-x="583" d="M20 -309q322 367 322 913.5t-322 913.5l29 34q88 -55 175 -155.5t143.5 -200.5t98.5 -260t42 -338t-43 -336t-95.5 -254t-129 -181t-113.5 -114.5t-78 -56.5z" />
<glyph unicode="*" horiz-adv-x="907" d="M76 1116l26 68l283 -66l31 291h76l30 -291l283 66l26 -68l-270 -125l150 -250l-60 -43l-196 215l-199 -215l-59 43l149 250z" />
<glyph unicode="+" horiz-adv-x="1042" d="M61 633l25 92h375q2 129 2 387l92 25l25 -23v-389l376 4l23 -24l-23 -101q-180 0 -374 2l2 -385l-101 -22l-24 22q2 168 2 385q-180 2 -377 2z" />
<glyph unicode="," horiz-adv-x="432" d="M88 -223q117 92 117 184t-94 156l-7 41l115 53h41q27 -27 48.5 -79t21.5 -122.5t-60.5 -146.5t-148.5 -123z" />
<glyph unicode="-" horiz-adv-x="815" d="M123 444l24 80q213 0 447 13l78 4l22 -25l-22 -106q-465 10 -527 10z" />
<glyph unicode="." horiz-adv-x="438" d="M106 95q0 48 32 81t80 33t81 -33t33 -81t-33 -79.5t-81 -31.5t-80 31.5t-32 79.5z" />
<glyph unicode="/" horiz-adv-x="851" d="M45 -41q236 553 617 1477l120 20l25 -22q-332 -784 -617 -1477l-120 -20z" />
<glyph unicode="0" horiz-adv-x="1208" d="M100 673q0 308 128 491.5t375 183.5t377 -191.5t130 -498t-134 -490.5t-380 -184t-371 190.5t-125 498.5zM291 723q0 -612 332 -612q111 0 198 49q98 154 99 448q0 612 -332 613q-111 -1 -199 -50q-98 -154 -98 -448z" />
<glyph unicode="1" horiz-adv-x="716" d="M61 1133l375 215l39 -17v-1206l197 -80l-13 -45h-563l-12 45l154 64q37 14 50 30t13 47v930q-133 -12 -227 -29z" />
<glyph unicode="2" horiz-adv-x="1052" d="M68 90q372 324 507.5 498t135.5 319q0 289 -265 289q-111 0 -176 -31l-10 -172l-49 -14l-133 184q20 23 62 57.5t147.5 81t212.5 46.5q174 0 287.5 -107.5t113.5 -279.5q0 -240 -254 -510q-90 -94 -152.5 -151.5t-170.5 -154.5l483 5l96 176l62 -15l-21 -311h-852z" />
<glyph unicode="3" horiz-adv-x="1003" d="M57 1192q186 156 418 156q178 0 293 -99.5t115 -251.5q0 -106 -55.5 -191t-147.5 -138q100 -39 160.5 -121t60.5 -182q0 -158 -152.5 -269.5t-426.5 -111.5q-127 0 -193 16l-23 39l33 127q125 -33 282 -33t261 47q37 53 37 148.5t-57.5 176.5t-167.5 95q-43 -6 -91.5 -6 t-93.5 14l-22 25l20 78q59 12 108.5 12h69.5q215 47 215 238q0 106 -69.5 174.5t-194.5 68.5t-196 -30l-11 -173l-49 -14z" />
<glyph unicode="4" d="M23 434l579 877l127 37l41 -17q0 -111 6 -829l189 6l22 -25l-22 -131h-142q-47 0 -47 -45l4 -307l-157 -16l-25 22q6 145 6 342h-553zM207 492h352q45 0 45 49l2 551z" />
<glyph unicode="5" horiz-adv-x="954" d="M80 74l35 121q154 -66 274.5 -66t214.5 29q53 35 85 97t32 107.5t-4 71.5q-45 274 -537 275h-22l-23 24l27 598q274 0 545 12l90 5l22 -25l-26 -145q-313 8 -517 8l-14 -312q569 -27 612 -403q5 -30 5 -57q0 -176 -142.5 -303t-382.5 -127q-150 0 -252 51z" />
<glyph unicode="6" horiz-adv-x="1046" d="M94 504q0 231 75 389t177 244q193 162 467 211l25 -68q-221 -80 -358.5 -208t-182.5 -359q125 84 289 84q104 0 184 -35t125 -94q88 -117 88 -294t-128 -283.5t-318 -106.5q-242 0 -353 170q-90 141 -90 350zM279 508q0 -160 53 -266q68 -127 239 -127q98 2 174 30 q60 72 60 209q0 301 -285 301q-139 0 -239 -75q-2 -37 -2 -72z" />
<glyph unicode="7" horiz-adv-x="937" d="M55 1020l21 311h831l25 -90q-190 -309 -309 -595t-205 -644l-174 -18l-41 16q135 389 261 649t308 537l-559 -4l-96 -176z" />
<glyph unicode="8" horiz-adv-x="1071" d="M100 298q0 138 81 228t184 136q-113 45 -176.5 132t-63.5 197q0 154 115.5 255.5t294 101.5t291 -93.5t112.5 -232.5q0 -104 -66.5 -190.5t-183.5 -137.5q287 -121 287 -356q0 -156 -122 -255t-322.5 -99t-315.5 88t-115 226zM272 340q0 -113 77 -171t207 -58t216 51 q39 53 39 147t-63.5 158.5t-255.5 140.5q-220 -110 -220 -268zM289 1026.5q0 -88.5 52 -149t216 -129.5q209 106 209 260q0 102 -67.5 157.5t-179 55.5t-191.5 -47q-39 -59 -39 -147.5z" />
<glyph unicode="9" horiz-adv-x="1042" d="M63 947q0 175 128 288t317 113q233 0 344 -172q96 -145 96 -365q0 -201 -55 -338t-123 -215t-162 -135q-160 -96 -375 -139l-24 67q109 43 183.5 83t154.5 106q160 131 205 383q-127 -86 -289 -86q-203 0 -301.5 117.5t-98.5 292.5zM242 965.5q0 -142.5 72.5 -215 t204.5 -72.5t249 76q2 35 2 67q0 395 -303 396q-96 0 -162 -31q-63 -78 -63 -220.5z" />
<glyph unicode=":" horiz-adv-x="466" d="M121 95q0 48 31.5 81t80 33t81 -33t32.5 -81t-32.5 -79.5t-81 -31.5t-80 31.5t-31.5 79.5zM121 824q0 48 31.5 81t80 33t81 -33t32.5 -81t-32.5 -79.5t-81 -31.5t-80 31.5t-31.5 79.5z" />
<glyph unicode=";" horiz-adv-x="481" d="M117 -223q117 92 116.5 184t-94.5 156l-6 41l115 53h41q26 -27 47.5 -79t21.5 -122.5t-60 -146.5t-148 -123zM133 824q0 48 32 81t80 33t80.5 -33t32.5 -81t-32.5 -79.5t-80.5 -31.5t-80 31.5t-32 79.5z" />
<glyph unicode="&#x3c;" horiz-adv-x="915" d="M61 598v35l15 67l663 416l31 -14l29 -80l-563 -377l555 -373l2 -32l-54 -66z" />
<glyph unicode="=" horiz-adv-x="1097" d="M133 469l25 92l788 4l23 -24l-23 -101q-727 4 -790 4zM133 797l25 92l788 4l23 -25l-23 -100q-727 4 -790 4z" />
<glyph unicode="&#x3e;" horiz-adv-x="915" d="M117 268l563 377l-555 373l-2 33l53 65l678 -424v-35l-14 -67l-664 -416l-31 14z" />
<glyph unicode="?" horiz-adv-x="802" d="M61 1274l23 37q74 37 199 37q197 0 326.5 -100.5t129.5 -261.5t-98 -257t-291 -180l-16 -176l-78 -4l-29 282q197 84 275 149.5t78 189.5t-68 184q-66 25 -192.5 24.5t-235.5 -35.5zM195 98q0 49 31.5 81t80.5 32t81 -33t32 -80t-33 -79.5t-81 -32.5t-79.5 31.5 t-31.5 80.5z" />
<glyph unicode="@" horiz-adv-x="1994" d="M82 332.5q0 185.5 59.5 356.5t163 297t240.5 218q270 184 614 184.5t559 -211.5t215 -567q0 -166 -50 -294t-130 -197q-162 -135 -332 -135q-88 0 -147.5 37.5t-79.5 101.5q-57 -57 -142 -98t-169 -41q-139 0 -211 111.5t-72 283.5q0 231 125 395t350 164q113 0 223 -27 l80 27l39 -16q-78 -705 -78 -744t35 -68.5t94 -29.5q139 0 216 145.5t77 352.5q0 309 -176 502.5t-481 193.5q-356 0 -600 -254t-244 -662q0 -344 181.5 -531t471.5 -187q240 0 461 114l31 -59q-33 -27 -84 -57.5t-182 -72.5t-254 -42t-228.5 24.5t-211 83t-185.5 147.5 t-129 229t-49 325.5zM770 388q0 -128 53.5 -200.5t141.5 -72.5q119 0 217 102l61 561q-82 39 -178 39t-184 -31q-55 -61 -83 -165.5t-28 -232.5z" />
<glyph unicode="A" horiz-adv-x="1302" d="M-27 45l113 47q35 14 44 26.5t24 51.5l409 1141l125 37l41 -17l440 -1220l160 -66l-12 -45h-502l-12 45l112 47q41 16 41 51q0 12 -6 27l-92 260h-475l-109 -313l177 -72l-13 -45h-452zM418 535h403l-203 575z" />
<glyph unicode="B" horiz-adv-x="1263" d="M70 45l112 47q37 14 50.5 30.5t13.5 47.5v1044l-176 72l12 45q399 16 524 17q510 0 510 -347q0 -207 -186 -307q248 -86 248 -342q0 -92 -36 -160.5t-91.5 -107.5t-137.5 -64q-133 -37 -274 -37q-2 1 -4 1q-143 0 -553 16zM420 109q52 -9 210 -9h5q155 0 272 37 q80 61 80 201q0 287 -313 287h-199q-55 0 -55 -52v-464zM420 737q53 -8 192.5 -8t239.5 41q74 55 74 181t-64.5 205t-218.5 79h-168q-55 0 -55 -51v-447z" />
<glyph unicode="C" horiz-adv-x="1210" d="M94 663.5q0 323.5 190.5 504t456.5 180.5q190 0 295 -84q74 -57 101 -103l-133 -184l-50 14l-10 193q-94 33 -238.5 33t-244.5 -46q-184 -172 -185 -487q0 -276 143.5 -424.5t362.5 -148.5q166 0 342 88l31 -60q-53 -53 -168.5 -104t-269.5 -51q-272 0 -447.5 178 t-175.5 501.5z" />
<glyph unicode="D" horiz-adv-x="1445" d="M70 45l112 47q37 14 50.5 30.5t13.5 47.5v1044l-176 72l12 45q463 16 582 17q684 0 684 -701q0 -365 -193.5 -514t-611.5 -149q-51 0 -461 16zM420 109q80 -8 205 -9q270 0 405 88q127 156 127 439.5t-119 445.5t-344 162h-219q-55 0 -55 -51v-1075z" />
<glyph unicode="E" horiz-adv-x="1116" d="M70 45l112 47q37 14 50.5 30.5t13.5 47.5v1044l-176 72l12 45h932v-280l-62 -15l-98 181l-379 8q-55 -1 -55 -62v-442q195 0 395 18l66 6l22 -24l-22 -115q-244 14 -461 15v-515l444 9l99 180l61 -14v-281h-942z" />
<glyph unicode="F" horiz-adv-x="1079" d="M70 45l112 47q37 14 50.5 30.5t13.5 47.5v1044l-176 72l12 45h952v-280l-61 -15l-99 181l-399 8q-55 0 -55 -64v-426h328l65 142l45 -13v-381l-45 -12l-39 92q-14 37 -30.5 50.5t-47.5 13.5h-276v-508l182 -74l-12 -45h-508z" />
<glyph unicode="G" horiz-adv-x="1357" d="M92 651q0 176 59.5 314.5t159.5 218.5q203 164 480.5 164t398.5 -187l-133 -184l-49 14l-11 193q-94 33 -252.5 33t-259.5 -46q-211 -186 -211 -479t150.5 -437t392.5 -144q61 0 113 8q76 14 76 76v266l-177 65l13 45h458l15 -53l-78 -31q-37 -14 -50 -30t-13 -47v-297 q-182 -129 -450.5 -129t-450 174t-181.5 493z" />
<glyph unicode="H" horiz-adv-x="1501" d="M70 45l112 47q37 14 50.5 30.5t13.5 47.5v1044l-176 72l12 45h502l12 -45l-113 -47q-37 -14 -50 -30.5t-13 -47.5v-422h661v475l-176 72l13 45h501l13 -45l-113 -47q-37 -14 -50.5 -30.5t-13.5 -47.5v-1044l177 -72l-13 -45h-501l-13 45l113 47q37 14 50 30.5t13 47.5 v453h-661v-506l176 -72l-12 -45h-502z" />
<glyph unicode="I" horiz-adv-x="665" d="M70 45l112 47q37 14 50.5 30.5t13.5 47.5v1044l-176 72l12 45h502l12 -45l-113 -47q-37 -14 -50 -30.5t-13 -47.5v-1044l176 -72l-12 -45h-502z" />
<glyph unicode="J" horiz-adv-x="630" d="M51 1286l12 45h502l13 -45l-113 -47q-37 -14 -50.5 -30.5t-13.5 -47.5v-1177q0 -309 -290 -471l-37 47q84 98 118.5 193t34.5 247v1214z" />
<glyph unicode="K" horiz-adv-x="1314" d="M70 45l112 47q37 14 50.5 30.5t13.5 47.5v1044l-176 72l12 45h502l12 -45l-113 -47q-37 -14 -50 -30.5t-13 -47.5v-1044l176 -72l-12 -45h-502zM463 698l508 516l-176 72l12 45h467l12 -45l-112 -47q-16 -6 -22.5 -10t-14 -6t-14.5 -9.5t-11 -10.5t-17.5 -17.5 t-23.5 -24.5l-416 -424l482 -620l176 -72l-13 -45h-292z" />
<glyph unicode="L" horiz-adv-x="1064" d="M70 45l112 47q37 14 50.5 30.5t13.5 47.5v1044l-176 72l12 45h502l12 -45l-113 -47q-37 -14 -50 -30.5t-13 -47.5v-1055l454 9l99 180l61 -14v-281h-952z" />
<glyph unicode="M" horiz-adv-x="1796" d="M49 45l113 47q51 23 59 45q2 10 4 33l51 1044l-176 72l13 45h413l27 -20l346 -1069l363 1089h426l12 -45l-113 -47q-65 -27 -63 -78l47 -1044l176 -72l-12 -45h-486l-12 45l92 45q66 31 64 80l-45 1004l-394 -1133l-127 -41l-39 20l-382 1151l-58 -1054l156 -72l-12 -45 h-431z" />
<glyph unicode="N" horiz-adv-x="1515" d="M70 45l112 47q37 14 50.5 30.5t13.5 47.5v1044l-176 72l12 45h342l725 -1032v-4l2 4v915l-176 72l12 45h463l12 -45l-112 -47q-37 -14 -50.5 -30.5t-13.5 -47.5v-1161l-147 -16l-758 1077v-944l176 -72l-12 -45h-463z" />
<glyph unicode="O" horiz-adv-x="1443" d="M94 655q0 172 53.5 307.5t143.5 217.5q188 168 453.5 168t435.5 -180.5t170 -495.5q0 -172 -53.5 -306.5t-145.5 -215.5q-184 -166 -450.5 -166t-436.5 178t-170 493zM285 692.5q0 -274.5 115.5 -428t334.5 -153.5q182 0 297 75q127 156 127 439.5t-115.5 437.5 t-332.5 154q-180 0 -299 -76q-127 -174 -127 -448.5z" />
<glyph unicode="P" horiz-adv-x="1114" d="M70 45l112 47q37 14 50.5 30.5t13.5 47.5v1044l-176 72l12 45q326 16 455 17q268 0 398 -95.5t130 -294.5q0 -399 -506 -399q-45 0 -139 4v-438l196 -80l-12 -45h-522zM420 676q53 -8 123 -8q143 0 258 47q74 57 73 211q0 309 -303 309h-96q-55 0 -55 -51v-508z" />
<glyph unicode="Q" horiz-adv-x="1445" d="M94 655q0 172 53.5 307.5t143.5 217.5q188 168 454.5 168t435.5 -181.5t169 -511.5q0 -121 -27 -218t-61.5 -155.5t-97 -110.5t-101.5 -74.5t-109 -57.5l58 -21q88 -25 190.5 -90t192.5 -121q108 -70 172 -70q1 0 1 1q64 0 144 37l29 -43l-205 -138q-96 6 -170 46.5 t-226.5 156t-227 143t-228.5 31.5q-4 14 -12 15h-21q-252 18 -404.5 194t-152.5 475zM285 692.5q0 -274.5 115.5 -428t334.5 -153.5q182 0 297 75q127 156 127 439.5t-115.5 437.5t-332.5 154q-180 0 -299 -76q-127 -174 -127 -448.5z" />
<glyph unicode="R" horiz-adv-x="1228" d="M70 45l112 47q37 14 50.5 30.5t13.5 47.5v1044l-176 72l12 45q338 16 463 17q530 0 530 -381q0 -301 -323 -373q23 -20 41 -59q139 -285 206.5 -369t208.5 -115l-14 -51l-229 -16q-111 90 -167.5 178t-185.5 360q-26 56 -73 56h-119v-461l170 -72l-12 -45h-496zM420 682 h133q152 0 238 35q45 33 69.5 77t24.5 130q0 133 -71 222t-232 89h-107q-55 0 -55 -51v-502z" />
<glyph unicode="S" horiz-adv-x="1058" d="M72 152l131 223l49 -15l31 -196q76 -53 219 -53q305 0 305 206q0 84 -53.5 137.5t-165.5 96.5l-236 90q-239 92 -239 330q0 182 127 279.5t323 97.5q240 0 385 -168l-145 -203l-49 14l-11 193q-68 37 -210 37t-232 -76q-25 -39 -25 -113q0 -158 168 -221l267 -102 q262 -100 262 -363q0 -178 -125 -270t-324 -92q-274 0 -452 168z" />
<glyph unicode="T" horiz-adv-x="1112" d="M39 1051v280h1034v-280l-49 -15l-102 191l-224 6q-27 2 -41 -14.5t-14 -38.5v-1063l176 -72l-12 -45h-502l-12 45l113 47q37 14 50 30.5t13 47.5v1065l-279 -8l-102 -191z" />
<glyph unicode="U" horiz-adv-x="1431" d="M47 1286l12 45h482l2 -45l-103 -47q-37 -14 -50 -30.5t-13 -47.5v-635q0 -199 95 -307t257 -108t260 49q102 109 103 356v698l-177 72l13 45h442l12 -45l-92 -39q-63 -25 -63 -86v-639q0 -289 -119 -413.5t-371 -124.5q-535 0 -534 532v707z" />
<glyph unicode="V" horiz-adv-x="1306" d="M-25 1286l13 45h501l13 -45l-113 -47q-41 -16 -41 -51q0 -12 6 -27l332 -940l344 993l-176 72l12 45h453l12 -45l-112 -47q-35 -14 -44.5 -26.5t-23.5 -51.5l-410 -1141l-125 -36l-41 16l-440 1221z" />
<glyph unicode="W" horiz-adv-x="1998" d="M-18 1286l12 45h502l12 -45l-113 -47q-39 -16 -39 -51q0 -12 4 -27l273 -940l311 1069l125 41l39 -20l322 -1090l288 993l-176 72l12 45h455l12 -45l-112 -47q-35 -14 -45.5 -27.5t-22.5 -50.5l-346 -1141l-152 -36l-40 16l-304 1022l-288 -1002l-158 -36l-41 16 l-371 1221z" />
<glyph unicode="X" horiz-adv-x="1323" d="M8 45l113 47q35 14 47 28.5t22.5 31t12.5 18.5l360 498l-397 553l-148 65l13 45h501l13 -45l-113 -47q-29 -12 -29 -32.5t19 -45.5l264 -368l297 421l-176 72l12 45h463l12 -45l-112 -47q-25 -10 -31 -15l-9 -7.5t-10.5 -11.5t-9.5 -11t-10 -15.5t-12 -17.5l-336 -477 l414 -573l147 -66l-12 -45h-502l-12 45l112 47q29 12 29 32.5t-18 45.5l-281 389l-322 -442l177 -72l-13 -45h-463z" />
<glyph unicode="Y" horiz-adv-x="1224" d="M-20 1286l12 45h493l13 -45l-97 -47q-45 -20 -45 -49q0 -14 11 -29l278 -413l303 466l-176 72l12 45h459l12 -45l-112 -47q-39 -16 -56.5 -35.5t-31.5 -42.5l-353 -545v-499l177 -72l-13 -45h-501l-13 45l113 47q37 14 50 30.5t13 47.5v440l-405 611z" />
<glyph unicode="Z" horiz-adv-x="1132" d="M51 59l766 1166l-541 -4l-100 -185l-61 15v280h925l13 -67l-756 -1158l582 5l100 184l61 -14v-281h-977z" />
<glyph unicode="[" horiz-adv-x="589" d="M162 -322q6 463 6 926t-6 926l24 22l367 -16v-74l-238 -18q-4 -420 -4 -840t4 -840l238 -18v-74l-367 -16z" />
<glyph unicode="\" horiz-adv-x="833" d="M47 1405l103 47l32 -16q84 -203 203 -490q254 -616 403 -962l-102 -47l-33 16q-573 1378 -606 1452z" />
<glyph unicode="]" horiz-adv-x="589" d="M37 -254l237 18q5 420 5 840t-5 840l-237 18v74l366 16l25 -22q-6 -463 -6 -926t6 -926l-25 -22l-366 16v74z" />
<glyph unicode="^" horiz-adv-x="919" d="M82 846l334 502h86l338 -498l-70 -53l-309 352l-309 -354z" />
<glyph unicode="_" horiz-adv-x="1220" d="M117 25l24 79h934l23 -24l-23 -96q-729 16 -936 16z" />
<glyph unicode="`" horiz-adv-x="600" d="M59 1288l88 113l41 8l330 -238l-26 -41z" />
<glyph unicode="a" horiz-adv-x="882" d="M78 234.5q0 109.5 107.5 169t377.5 75.5l2 133v8q0 86 -44 140q-46 56 -126 56.5t-139 -17.5l-16 -156l-50 -14l-112 159q45 51 135 100.5t215 49.5q305 0 305 -371l-10 -456l141 -50l-12 -45l-174 -32l-41 16l-66 57l-10 4q-132 -78 -242 -78l-1 1q-110 0 -175 70.5 t-65 180zM236 272q0 -86 47 -120.5t109.5 -34.5t166.5 35l4 237q-262 -14 -325 -90q-2 -10 -2 -27z" />
<glyph unicode="b" horiz-adv-x="1028" d="M-23 1313l277 96l41 -16v-533q133 78 299 78t261 -137t95 -353.5t-130 -340t-331 -123.5q-84 0 -195.5 19.5t-160.5 43.5v1198l-143 23zM299 143q81 -29 198 -29h4q120 0 199 31q76 100 76 293q0 358 -270 359q-100 0 -207 -27v-627z" />
<glyph unicode="c" horiz-adv-x="888" d="M78 461q0 225 130 351t316 126q92 0 164 -35t96.5 -61.5t38.5 -53.5l-118 -159l-50 14l-16 156q-45 12 -143.5 12t-167.5 -35q-78 -98 -78 -280.5t86 -281.5t221 -99t252 53l29 -53q-25 -25 -60 -50.5t-111.5 -53t-160.5 -27.5q-190 0 -309 126t-119 351z" />
<glyph unicode="d" horiz-adv-x="1069" d="M78 474q0 216 130 340t331 124q88 0 161 -12l29 -6v325l-143 23l-13 45l281 96l41 -16v-1282l141 -66l-12 -45l-195 -16l-28 12l-60 61l-8 4q-132 -78 -297 -78q-1 1 -2 1q-166 0 -261 137t-95 353zM252 483q0 -358 270 -358q100 0 207 27v626q-82 29 -201.5 29 t-199.5 -31q-76 -100 -76 -293z" />
<glyph unicode="e" horiz-adv-x="931" d="M78 461q0 225 129 351t301 126t260 -101.5t88 -277.5v-67l-31 -31h-573q4 -158 88 -252t216 -94t253 53l29 -53q-25 -25 -60 -50.5t-111.5 -53t-160.5 -27.5q-190 0 -309 126t-119 351zM254 549l438 12q0 246 -207 246q-96 0 -157 -31q-25 -31 -48.5 -98.5t-25.5 -128.5z " />
<glyph unicode="f" horiz-adv-x="641" d="M47 45l92 39q37 14 50.5 30.5t13.5 47.5v663l-144 -2l-12 45l156 70q12 389 303 457q66 10 92 10q70 0 98 -12l15 -43l-29 -101q-80 14 -158 15h-3q-76 0 -124 -25q-28 -59 -28 -243v-13v-61h223l22 -25l-20 -78l-225 8v-702l192 -80l-12 -45h-490z" />
<glyph unicode="g" horiz-adv-x="913" d="M39 -221q0 147 151 252q-33 36 -33 80t29 99q29 54 74 93q-86 41 -134 119t-48 180q0 152 100.5 246t257.5 94q115 0 203 -53q84 104 141 147l88 -102l-12 -31q-116 -58 -143 -72q84 -90 84 -234t-101.5 -237.5t-261.5 -93.5q-41 0 -78 6q-55 -53 -55 -106 q0 -18 28.5 -23.5t258.5 -25.5q129 -12 214 -78t85 -205t-122 -230t-317.5 -91t-302 72.5t-106.5 193.5zM274 -322q76 -49 208 -49t225 56q33 46 33 127v2q-1 82 -52 108.5t-151 36.5q-137 14 -218 14q-20 3 -47 11q-76 -70 -76 -162q0 -94 78 -144zM238 600 q0 -100 53 -156.5t148.5 -56.5t150.5 33q16 20 29.5 77.5t13.5 110.5q0 100 -53.5 156.5t-148.5 56.5t-150 -33q-16 -20 -29.5 -77.5t-13.5 -110.5z" />
<glyph unicode="h" horiz-adv-x="1091" d="M20 45l93 39q37 14 50 30.5t13 47.5v1083l-143 23l-13 45l277 96l41 -16v-533q141 78 291 78q295 0 295 -313v-514l161 -66l-12 -45h-459l-12 45l92 39q37 14 50.5 30.5t13.5 47.5v438q0 104 -48 150.5t-154.5 46.5t-213.5 -27v-659l162 -66l-12 -45h-459z" />
<glyph unicode="i" horiz-adv-x="555" d="M49 45l92 39q37 14 50.5 30.5t13.5 47.5v612l-144 23l-12 45l281 96l41 -16v-811l161 -66l-12 -45h-459zM166 1262.5q0 48.5 31.5 81t80 32.5t81 -32.5t32.5 -81t-32.5 -80t-81 -31.5t-80 31.5t-31.5 80z" />
<glyph unicode="j" horiz-adv-x="489" d="M27 -451q156 182 155 435v790l-143 23l-12 45l280 96l41 -16v-922q0 -164 -79 -288t-214 -199zM143 1262.5q0 48.5 32 81t80 32.5t81 -32.5t33 -81t-33 -80t-81 -31.5t-80 31.5t-32 80z" />
<glyph unicode="k" horiz-adv-x="1050" d="M20 45l93 39q37 14 50 30.5t13 47.5v1083l-143 23l-13 45l281 96l41 -16v-1282l162 -66l-12 -45h-459zM365 496l321 315l-145 66l12 45h414l12 -45l-92 -39q-49 -20 -123 -95l-219 -213l352 -419l156 -66l-13 -45h-260z" />
<glyph unicode="l" horiz-adv-x="534" d="M29 45l92 39q37 14 50 30.5t13 47.5v1083l-143 23l-12 45l280 96l41 -16v-1282l162 -66l-12 -45h-459z" />
<glyph unicode="m" horiz-adv-x="1701" d="M49 45l92 39q37 14 50.5 30.5t13.5 47.5v612l-144 23l-12 45l264 96l41 -16l4 -58l9 -4q141 78 294.5 78t227.5 -92q180 92 342 92q303 0 303 -313v-514l162 -66l-13 -45h-458l-13 45l93 39q37 14 50 30.5t13 47.5v438q0 104 -48 150.5t-156.5 46.5t-231.5 -33 q20 -68 20 -139v-514l162 -66l-12 -45h-459l-12 45l92 39q37 14 50 30.5t13 47.5v438q0 104 -48 150.5t-154.5 46.5t-212.5 -27v-659l161 -66l-12 -45h-459z" />
<glyph unicode="n" horiz-adv-x="1120" d="M49 45l92 39q37 14 50.5 30.5t13.5 47.5v612l-144 23l-12 45l264 96l41 -16l4 -58l9 -4q141 78 290 78q295 0 295 -313v-514l162 -66l-12 -45h-459l-12 45l92 39q37 14 50 30.5t13 47.5v438q0 104 -48 150.5t-154.5 46.5t-212.5 -27v-659l161 -66l-12 -45h-459z" />
<glyph unicode="o" d="M78 461.5q0 228.5 131 352.5t321.5 124t309 -125t118.5 -353.5t-131 -352t-321.5 -123.5t-309 124.5t-118.5 353zM252 483q0 -368 278 -368h2q102 0 177 30q75 97 75 288v5q0 369 -280 369q-102 0 -176 -31q-76 -98 -76 -293z" />
<glyph unicode="p" horiz-adv-x="1077" d="M27 -422l92 39q37 14 50 30.5t13 47.5v1079l-143 23l-12 45l264 96l41 -16l4 -58l8 -4q140 78 285 78q180 0 275 -138t95 -353.5t-130 -339t-324 -123.5q-94 0 -197 18v-358l162 -66l-12 -45h-459zM348 143q81 -29 198 -29h4q120 1 200 31q76 100 75 293q0 358 -270 359 q-100 0 -207 -27v-627z" />
<glyph unicode="q" d="M78 475q0 215 130 339t324 124q125 0 240 -27l84 27l39 -16v-1278l162 -66l-13 -45h-458l-13 45l93 39q37 14 50 30.5t13 47.5v364q-135 -75 -276 -75h-4q-178 0 -274.5 138t-96.5 353zM252 483q0 -358 270 -358q100 0 207 27v626q-82 29 -201.5 29t-199.5 -31 q-76 -100 -76 -293z" />
<glyph unicode="r" horiz-adv-x="792" d="M49 45l92 39q37 14 50.5 30.5t13.5 47.5v612l-144 23l-12 45l264 96l41 -16l8 -76l9 -4q29 23 118 56.5t132 39.5q43 -12 92 -52t67 -75l-133 -178l-49 14v156q-53 0 -126 -15.5t-101 -27.5v-649l182 -66l-12 -45h-480z" />
<glyph unicode="s" horiz-adv-x="821" d="M66 121l104 170l51 -15l8 -137q72 -41 183 -41q186 0 186 127q0 51 -33 82t-106 55l-189 62q-84 29 -129 94.5t-45 147.5q0 129 102.5 200.5t237.5 71.5q82 0 154 -33q100 -43 135 -96l-113 -160l-49 15l-16 143q-47 20 -144.5 20t-146.5 -49q-18 -29 -18 -67 q0 -86 104 -125l209 -74q88 -31 141 -99.5t53 -160.5q0 -129 -98 -198.5t-230 -69.5t-221.5 44t-129.5 93z" />
<glyph unicode="t" horiz-adv-x="624" d="M20 868l156 70l90 190l76 -14v-192h244l22 -25l-20 -78l-246 8v-598q0 -76 30.5 -111.5t108.5 -35.5h117l10 -57q-129 -41 -227 -41t-151.5 55t-53.5 143v641h-143z" />
<glyph unicode="u" horiz-adv-x="1093" d="M14 842l281 96l41 -16v-600q0 -104 48 -150.5t154.5 -46.5t213.5 27v622l-144 23l-12 45l281 96l41 -16v-811l141 -50l-12 -45l-175 -32l-41 16l-65 57l-10 4q-141 -77 -291 -77q-295 0 -295 313v477l-143 23z" />
<glyph unicode="v" horiz-adv-x="1048" d="M-6 877l12 45h451l12 -45l-92 -39q-37 -14 -37 -43t8 -52l203 -546l229 614l-145 66l12 45h397l13 -45l-101 -43q-39 -16 -55 -52q-6 -12 -16 -39l-293 -743l-94 -16l-41 16l-318 811z" />
<glyph unicode="w" horiz-adv-x="1544" d="M-10 877l12 45h451l12 -45l-92 -39q-40 -18 -40 -53q0 -19 11 -42l184 -555q145 332 187 523l-76 196l154 23l38 -17q207 -623 246 -725l199 623l-146 66l13 45h385l12 -45l-100 -43q-37 -14 -56 -52q-4 -12 -12 -39l-235 -743l-123 -16l-41 16q-92 258 -187 514 q-63 -209 -163 -436l-35 -78l-123 -16l-41 16l-289 811z" />
<glyph unicode="x" horiz-adv-x="1032" d="M16 45l101 43q59 25 90 70l215 299l-242 354l-155 66l12 45h262l240 -351l172 240l-156 66l12 45h420l12 -45l-100 -43q-59 -25 -92 -70l-201 -277l262 -381l154 -61l-12 -45h-267l-258 371l-180 -260l156 -66l-12 -45h-420z" />
<glyph unicode="y" horiz-adv-x="1067" d="M-12 877l12 45h451l12 -45l-92 -39q-39 -16 -39 -44t10 -51l223 -526l230 594l-146 66l13 45h397l12 -45l-100 -43q-39 -16 -58 -52q-4 -12 -14 -39l-291 -718q-141 -348 -250 -512l-153 49l-17 41q215 231 289 395l-344 813z" />
<glyph unicode="z" horiz-adv-x="878" d="M57 59l531 768l-342 -8l-99 -172l-49 15v239l21 21h665l13 -68l-525 -760l377 8l99 172l49 -14v-260h-727z" />
<glyph unicode="{" horiz-adv-x="624" d="M45 588v33q80 49 133 94t53 71q0 63 -18 213q-23 172 -23 213q0 133 68 222q92 119 250 118q45 0 57 -6l23 -39l-33 -92q-61 16 -94 16.5t-60.5 -0.5t-68.5 -22q-14 -27 -15 -74q0 -92 26 -300t26 -238.5t-42 -79.5t-87 -82l-45 -31q12 -6 53 -39t63 -57q61 -59 58 -109 q-9 -88 -27 -238.5t-21.5 -196.5t-3.5 -92t15 -73q41 -23 101.5 -22.5t121.5 16.5l33 -92l-23 -39q-12 -6 -57 -6q-158 0 -254 123q-63 82 -64 217q0 41 20.5 201.5t20.5 224.5q0 27 -46 67.5t-93 69.5z" />
<glyph unicode="|" horiz-adv-x="464" d="M164 -199q4 387 4 804t-4 865l112 21l25 -23q-6 -393 -6 -809.5t6 -859.5l-113 -20z" />
<glyph unicode="}" horiz-adv-x="624" d="M37 -299l33 92q61 -16 94 -16t62.5 1t66.5 21q14 27 14 74q0 92 -25.5 300t-25.5 238.5t42 80t87 81.5l45 31q-12 6 -53 39t-66 57q-59 59 -55 109q8 88 26.5 238.5t21.5 196.5t3 92t-14 73q-45 23 -103.5 23t-119.5 -17l-33 92l22 39q14 6 60 6q156 0 252 -122 q63 -84 63 -218q0 -41 -20.5 -201.5t-20.5 -224.5q0 -27 46 -67.5t93 -69.5l48 -28v-33q-80 -49 -133.5 -94t-53.5 -72q0 -63 19 -213q23 -172 22 -213q0 -135 -67 -221q-92 -119 -252 -119q-43 0 -56 6z" />
<glyph unicode="~" horiz-adv-x="1146" d="M123 621q31 70 94 124q74 59 181.5 59.5t285.5 -124.5q86 -61 107 -66q37 8 71.5 56.5t57.5 122.5l98 -29l18 -43q-33 -72 -98 -123q-74 -61 -173 -61t-228 84q-61 39 -95 63q-53 39 -73 43q-37 -8 -72 -56t-57 -122l-99 29z" />
<glyph unicode="&#xa1;" horiz-adv-x="464" d="M119 824q0 48 31.5 81t80 33t81 -33t32.5 -81t-32.5 -79.5t-81 -31.5t-80 31.5t-31.5 79.5zM125 -465l70 995l51 9l26 -4l66 -1002l-188 -20z" />
<glyph unicode="&#xa2;" horiz-adv-x="860" d="M84 652.5q0 185.5 92 296t238 134.5l-27 260l123 21l25 -23l-27 -251q80 -2 147 -33q104 -45 133 -99l-133 -170l-43 13l-18 166q-35 10 -125 10t-156 -31q-72 -104 -71.5 -266t78 -252t198.5 -90t234 47l28 -47q-100 -106 -278 -117l28 -272l-122 -21l-25 23l27 274 q-150 20 -238 131t-88 296.5z" />
<glyph unicode="&#xa3;" horiz-adv-x="987" d="M80 662l24 73h111q-14 109 -14 170q0 213 127 328t344 115q127 0 168 -21l22 -39l-33 -110q-98 27 -225 26.5t-192 -20.5q-68 -88 -68 -262q0 -55 12 -183l385 13l23 -25l-23 -100q-199 2 -374 6q6 -74 6 -153t-13 -152q-18 -131 -104 -219q88 41 211 41t179 -8.5 t100.5 -8.5t121.5 29l29 -8l29 -117q-90 -51 -185.5 -51t-171.5 20q-207 55 -422 -14l-45 82q78 61 111 152t33 177q0 61 -17 232q-63 2 -127 2z" />
<glyph unicode="&#xa4;" horiz-adv-x="1347" d="M98 168l197 240q-66 109 -66 256t68 254l-199 245l54 62l264 -185q119 82 263 82t257 -78l260 181l53 -62l-196 -241q66 -109 65.5 -253.5t-69.5 -256.5l200 -244l-53 -62l-266 183q-121 -80 -264.5 -80t-253.5 76l-260 -179zM403 688q0 -162 78 -255t213 -93 q92 0 170 41q80 100 80 262t-78 255t-213 93q-92 0 -170 -41q-80 -100 -80 -262z" />
<glyph unicode="&#xa5;" horiz-adv-x="1378" d="M51 1286l12 45h494l12 -45l-96 -47q-45 -20 -45 -49q0 -14 10 -29l279 -413l303 466l-176 72l12 45h459l12 -45l-113 -47q-39 -16 -56 -35.5t-32 -42.5l-266 -407l250 4l20 -25l-20 -88h-848l-20 23l22 82h242l-311 471zM242 442l24 80h842l22 -24l-22 -88q-152 2 -334 4 v-297l176 -72l-12 -45h-502l-12 45l113 47q37 14 50 30.5t13 47.5v246l-336 2zM711 733q2 -2 6 -2t8 4z" />
<glyph unicode="&#xa6;" horiz-adv-x="458" d="M158 -197q16 604 18 670l82 21l25 -23q4 -207 16 -670l-117 -20zM158 1470l116 21l25 -23q-16 -604 -18 -669l-80 -21l-25 23q-2 129 -10 382.5t-8 286.5z" />
<glyph unicode="&#xa7;" horiz-adv-x="860" d="M63 -346l33 119q104 -29 238.5 -29t200.5 20q68 88 67.5 239t-66 437.5t-65.5 440.5q0 74 10 133l76 -4l21 -13v-26q0 -195 83.5 -506t83.5 -434q0 -215 -134 -326t-363 -111q-121 0 -162 21zM115 911q0 215 134 326t363 111q121 0 162 -21l23 -39l-33 -119 q-104 29 -238.5 29t-199.5 -20q-68 -88 -68 -239t65.5 -437.5t65.5 -440.5q0 -74 -10 -133l-76 4l-20 13v26q0 195 -84 506t-84 434z" />
<glyph unicode="&#xa8;" horiz-adv-x="770" d="M70 1262.5q0 48.5 31.5 81t79.5 32.5t81 -32.5t33 -81t-33 -80t-81 -31.5t-79.5 31.5t-31.5 80zM475 1262.5q0 48.5 32 81t80 32.5t80.5 -32.5t32.5 -81t-32.5 -80t-80.5 -31.5t-80 31.5t-32 80z" />
<glyph unicode="&#xa9;" horiz-adv-x="1658" d="M88 659.5q0 346.5 215 549t534.5 202.5t526.5 -196.5t207 -541.5t-214 -549t-534.5 -204t-527.5 196.5t-207 543zM248 668q0 -293 161.5 -463t427 -170t420 168t154.5 460.5t-160.5 462.5t-426 170t-421 -167.5t-155.5 -460.5zM481 676.5q0 195.5 109.5 292t257.5 96.5 q76 0 139 -27q106 -43 131 -92l-121 -153l-39 12l-18 137q-41 10 -120 10t-130 -28q-53 -76 -53 -226q0 -307 248 -307q98 0 202 37l23 -43q-27 -35 -101.5 -70.5t-170.5 -35.5q-154 0 -255.5 101t-101.5 296.5z" />
<glyph unicode="&#xaa;" horiz-adv-x="702" d="M115 670l24 80l432 8l23 -25l-23 -94q-373 6 -434 6zM150 1272q76 76 188 76q166 0 166 -195l-2 -184l65 -23l-12 -49l-102 -14l-27 8l-29 29q-47 -39 -109.5 -39t-98 36.5t-35.5 91t55 84t178 50.5v41q4 80 -74 80q-33 0 -49 -9l-4 -69l-41 -12zM262 1044q-3 -73 60 -73 q41 0 65 12v92q-96 -10 -125 -31z" />
<glyph unicode="&#xab;" horiz-adv-x="1097" d="M49 426v70l490 413l63 -65l-346 -383l346 -383l-63 -66zM535 432v57l415 396l70 -56l-291 -368l291 -369l-70 -55z" />
<glyph unicode="&#xac;" horiz-adv-x="1183" d="M125 653l25 92l870 5l22 -25l5 -381l-97 -22l-24 22q2 78 4 281q-410 4 -783 4z" />
<glyph unicode="&#xad;" horiz-adv-x="815" d="M123 444l24 80q213 0 447 13l78 4l22 -25l-22 -106q-465 10 -527 10z" />
<glyph unicode="&#xae;" horiz-adv-x="1699" d="M88 659.5q0 344.5 224.5 548t546 203.5t537.5 -197.5t216 -541.5t-223.5 -548t-546 -204t-538.5 197.5t-216 542zM248 669q0 -292 171 -463t438 -171t431 169t164 459.5t-169 461.5t-437 171t-433 -167.5t-165 -459.5zM500 311l69 31q39 18 39 43v594l-108 45l10 39 q223 12 305 12q322 0 322 -231q0 -86 -46.5 -141.5t-119.5 -73.5q4 -16 57 -121q98 -188 191 -189h4l-9 -47l-176 -8q-66 37 -196 318q0 2 -2 6t-3 7t-6 7q-10 6 -24 6h-66v-250q53 -23 99 -47l-6 -39h-324zM741 692h78q90 0 129 19v-2q35 31 35 108q0 174 -149 174h-64 q-29 1 -29 -26v-273z" />
<glyph unicode="&#xb0;" horiz-adv-x="688" d="M88 1098.5q0 115.5 71.5 182.5t189.5 67t184.5 -73t66.5 -185.5t-71.5 -181t-190.5 -68.5t-184.5 71.5t-65.5 187zM225 1102q0 -166 129 -166q35 0 68 12q41 41 41 137q0 166 -129 166q-35 0 -68 -12q-41 -41 -41 -137z" />
<glyph unicode="&#xb1;" horiz-adv-x="954" d="M121 821l24 92h275v285l92 25l25 -23v-287l274 5l23 -25l-23 -100q-129 0 -272 2l2 -283l-101 -23l-24 23q2 111 2 283q-129 2 -275 2zM131 201l25 92l645 4l22 -25l-22 -100q-584 4 -647 4z" />
<glyph unicode="&#xb2;" horiz-adv-x="667" d="M104 1223q31 39 101.5 70.5t141.5 31.5t127 -54t56 -143.5t-62 -168t-181 -175.5h162l53 86l57 -14l-10 -174h-424l-14 74q161 133 222.5 212t61.5 138q0 115 -90 115q-27 0 -51 -11l-6 -80l-62 -14z" />
<glyph unicode="&#xb3;" horiz-adv-x="616" d="M102 1235q90 90 195.5 90t157 -49t51.5 -136t-62 -145q72 -63 72 -139t-72.5 -130t-205.5 -54q-63 0 -113 12l-10 29l18 80q72 -20 137.5 -20.5t116.5 20.5q8 25 8 55q0 78 -69 100q-92 0 -111 6l-14 19l8 55q2 0 123 8q59 29 59 94q0 39 -28.5 69t-66.5 30t-69 -10 l-6 -82l-43 -11z" />
<glyph unicode="&#xb4;" horiz-adv-x="600" d="M82 1171l352 252l84 -106l-8 -41l-401 -146z" />
<glyph unicode="&#xb6;" horiz-adv-x="1017" d="M78 952.5q0 198.5 141 296t375 97.5q94 0 358 -15l13 -45l-113 -47q-45 -18 -64.5 -33.5t-19.5 -44.5v-907q0 -197 -94 -304.5t-260 -107.5q-82 0 -146.5 18.5t-81.5 30.5l-22 39l41 101q133 -66 258 -66q33 0 77 6t56 15q31 57 31 229v330q-18 -2 -66 -2 q-205 0 -344 105.5t-139 304z" />
<glyph unicode="&#xb7;" horiz-adv-x="466" d="M121 449.5q0 48.5 31.5 81t80 32.5t81 -32.5t32.5 -81t-32.5 -80t-81 -31.5t-80 31.5t-31.5 80z" />
<glyph unicode="&#xb8;" horiz-adv-x="731" d="M184 -451l21 68q47 -18 103.5 -18t99.5 14q18 29 18 72q0 113 -127 112h-23l-22 27l61 213h64l-10 -176q76 -4 127 -47t51 -118t-66.5 -129t-158 -54t-123.5 16z" />
<glyph unicode="&#xb9;" horiz-adv-x="520" d="M104 1212l191 111l49 -14v-545l90 -43l-12 -39h-299l-10 47l92 35q8 2 8 12v402l-98 -13z" />
<glyph unicode="&#xba;" horiz-adv-x="733" d="M131 670l25 80l424 8l22 -25l-22 -94q-365 6 -426 6zM131 1118.5q0 100.5 68.5 165t172 64.5t167 -70t63.5 -168t-68.5 -163.5t-172 -65.5t-167 68.5t-63.5 169zM268 1120q0 -143 109 -143q29 0 55 10q33 33 33 121q0 143 -109 143q-29 0 -55 -10q-33 -33 -33 -121z" />
<glyph unicode="&#xbb;" horiz-adv-x="1097" d="M78 92l291 369l-291 368l69 56l416 -396v-57l-416 -395zM496 78l346 383l-346 383l63 65l490 -413v-70l-490 -414z" />
<glyph unicode="&#xbc;" horiz-adv-x="1306" d="M82 31q496 629 938 1229l131 30l25 -22q-496 -629 -938 -1229l-132 -31zM106 1212l191 111l49 -14v-545l90 -43l-12 -39h-299l-10 47l92 35q8 2 8 12v402l-98 -13zM803 565q90 90 195.5 90t156.5 -49t51 -136t-61 -144q72 -63 72 -139t-73 -130.5t-206 -54.5 q-63 0 -113 12l-10 29l19 80q72 -20 137 -20.5t116 20.5q8 25 9 55q0 78 -70 101q-92 0 -111 6l-14 18l8 55q2 0 123 9q59 29 60 94q0 39 -29 68.5t-67 29.5t-68 -10l-6 -82l-43 -10z" />
<glyph unicode="&#xbd;" horiz-adv-x="1308" d="M82 31q496 629 938 1229l131 30l25 -22q-496 -629 -938 -1229l-132 -31zM106 1212l191 111l49 -14v-545l90 -43l-12 -39h-299l-10 47l92 35q8 2 8 12v402l-98 -13zM770 547q31 39 101.5 70.5t141 31.5t127 -54t56.5 -143.5t-62.5 -168t-181.5 -174.5h162l53 86l58 -15 l-11 -174h-423l-15 74q162 133 223.5 212t61.5 138q0 115 -90 115q-27 0 -51 -10l-7 -80l-61 -15z" />
<glyph unicode="&#xbe;" horiz-adv-x="1239" d="M86 31q496 629 938 1229l131 30l25 -22q-496 -629 -938 -1229l-131 -31zM111 1212l190 111l49 -14v-545l90 -43l-12 -39h-299l-10 47l92 35q8 2 8 12v402l-98 -13zM639 229l262 402l76 22l39 -12q0 -154 4 -379l80 2l14 -18l-6 -78h-88l2 -160l-107 -8l-18 16q2 62 2 152 h-250zM772 258h127l2 203z" />
<glyph unicode="&#xbf;" horiz-adv-x="790" d="M57 -62.5q0 160.5 98.5 257t290.5 180.5l17 176l78 4l28 -283q-196 -84 -274 -149.5t-78 -189t68 -183.5q66 -25 192.5 -24.5t235.5 34.5l22 -110l-22 -37q-74 -37 -199 -37q-197 0 -327 100.5t-130 261zM377 825q0 47 32.5 80t81 33t80 -32t31.5 -81t-31.5 -80.5 t-81 -31.5t-81 32.5t-31.5 79.5z" />
<glyph unicode="&#xc0;" horiz-adv-x="1302" d="M-27 45l113 47q35 14 44 26.5t24 51.5l409 1141l125 37l41 -17l440 -1220l160 -66l-12 -45h-502l-12 45l112 47q41 16 41 51q0 12 -6 27l-92 260h-475l-109 -313l177 -72l-13 -45h-452zM371 1636l88 113l41 8l329 -237l-26 -41zM418 535h403l-203 575z" />
<glyph unicode="&#xc1;" horiz-adv-x="1302" d="M-27 45l113 47q35 14 44 26.5t24 51.5l409 1141l125 37l41 -17l440 -1220l160 -66l-12 -45h-502l-12 45l112 47q41 16 41 51q0 12 -6 27l-92 260h-475l-109 -313l177 -72l-13 -45h-452zM418 535h403l-203 575zM444 1520l353 252l84 -107l-9 -41l-401 -145z" />
<glyph unicode="&#xc2;" horiz-adv-x="1302" d="M-27 45l113 47q35 14 44 26.5t24 51.5l409 1141l125 37l41 -17l440 -1220l160 -66l-12 -45h-502l-12 45l112 47q41 16 41 51q0 12 -6 27l-92 260h-475l-109 -313l177 -72l-13 -45h-452zM365 1530l245 227h82l246 -227l-39 -39l-248 121l-248 -121zM418 535h403l-203 575z " />
<glyph unicode="&#xc3;" horiz-adv-x="1302" d="M-27 45l113 47q35 14 44 26.5t24 51.5l409 1141l125 37l41 -17l440 -1220l160 -66l-12 -45h-502l-12 45l112 47q41 16 41 51q0 12 -6 27l-92 260h-475l-109 -313l177 -72l-13 -45h-452zM324 1534l106 203l41 10q53 0 188 -53.5t170 -53.5h2l113 97l35 -23l-107 -203 l-41 -10q-53 0 -188 53.5t-170 53.5h-2l-113 -97zM418 535h403l-203 575z" />
<glyph unicode="&#xc4;" horiz-adv-x="1302" d="M-27 45l113 47q35 14 44 26.5t24 51.5l409 1141l125 37l41 -17l440 -1220l160 -66l-12 -45h-502l-12 45l112 47q41 16 41 51q0 12 -6 27l-92 260h-475l-109 -313l177 -72l-13 -45h-452zM336 1611q0 48 31.5 80.5t80 32.5t81 -32.5t32.5 -80.5t-32.5 -80t-81 -32t-80 32 t-31.5 80zM418 535h403l-203 575zM741 1611q0 48 32 80.5t80 32.5t81 -32.5t33 -80.5t-33 -80t-81 -32t-80 32t-32 80z" />
<glyph unicode="&#xc5;" horiz-adv-x="1302" d="M-27 45l113 47q35 14 44 26.5t24 51.5l409 1141l125 37l41 -17l440 -1220l160 -66l-12 -45h-502l-12 45l112 47q41 16 41 51q0 12 -6 27l-92 260h-475l-109 -313l177 -72l-13 -45h-452zM418 535h403l-203 575zM455 1623q0 81 56 129t143 48t140.5 -48t53.5 -128 t-57.5 -128t-144.5 -48t-139 47t-52 128zM571 1630q0 -109 88 -108q27 0 41 10q31 23 31 86q0 109 -88 108q-27 0 -41 -10q-31 -23 -31 -86z" />
<glyph unicode="&#xc6;" horiz-adv-x="1761" d="M-33 45l113 47q74 31 102 78l627 1044l-176 72l12 45h1014v-276l-62 -15l-98 181l-317 8q-56 -1 -56 -62v-446q150 0 336 16l64 4l22 -24l-22 -107q-233 10 -400 11v-519l383 9l99 180l61 -15v-276h-881l-12 45l113 47q37 14 50 30.5t13 47.5v246h-467l-176 -299l176 -72 l-12 -45h-493zM549 524h403v682z" />
<glyph unicode="&#xc7;" horiz-adv-x="1210" d="M94 655q0 332 190.5 512.5t456.5 180.5q190 0 295 -84q74 -57 101 -103l-133 -184l-50 14l-10 193q-94 33 -238.5 33t-244.5 -46q-184 -172 -185 -487q0 -276 143.5 -424.5t362.5 -148.5q166 0 342 88l31 -60q-53 -53 -169 -104t-269 -51h-27l-6 -123q76 -4 127 -47 t51 -118t-66.5 -129t-157.5 -54t-124 16l-14 20l20 68q47 -18 103.5 -18t99.5 14q18 29 18 72q0 113 -127 112h-22l-23 27l47 168q-233 33 -377.5 206t-144.5 457z" />
<glyph unicode="&#xc8;" horiz-adv-x="1116" d="M70 45l112 47q37 14 50.5 30.5t13.5 47.5v1044l-176 72l12 45h932v-280l-62 -15l-98 181l-379 8q-55 -1 -55 -62v-442q195 0 395 18l66 6l22 -24l-22 -115q-244 14 -461 15v-515l444 9l99 180l61 -14v-281h-942zM317 1636l89 113l40 8l330 -237l-26 -41z" />
<glyph unicode="&#xc9;" horiz-adv-x="1116" d="M70 45l112 47q37 14 50.5 30.5t13.5 47.5v1044l-176 72l12 45h932v-280l-62 -15l-98 181l-379 8q-55 -1 -55 -62v-442q195 0 395 18l66 6l22 -24l-22 -115q-244 14 -461 15v-515l444 9l99 180l61 -14v-281h-942zM371 1520l352 252l84 -107l-8 -41l-402 -145z" />
<glyph unicode="&#xca;" horiz-adv-x="1116" d="M70 45l112 47q37 14 50.5 30.5t13.5 47.5v1044l-176 72l12 45h932v-280l-62 -15l-98 181l-379 8q-55 -1 -55 -62v-442q195 0 395 18l66 6l22 -24l-22 -115q-244 14 -461 15v-515l444 9l99 180l61 -14v-281h-942zM301 1530l246 227h82l245 -227l-38 -39l-248 121 l-248 -121z" />
<glyph unicode="&#xcb;" horiz-adv-x="1116" d="M70 45l112 47q37 14 50.5 30.5t13.5 47.5v1044l-176 72l12 45h932v-280l-62 -15l-98 181l-379 8q-55 -1 -55 -62v-442q195 0 395 18l66 6l22 -24l-22 -115q-244 14 -461 15v-515l444 9l99 180l61 -14v-281h-942zM272 1611q0 48 32 80.5t80 32.5t81 -32.5t33 -80.5 t-33 -80t-81 -32t-80 32t-32 80zM678 1611q0 48 31.5 80.5t80 32.5t81 -32.5t32.5 -80.5t-32.5 -80t-81 -32t-80 32t-31.5 80z" />
<glyph unicode="&#xcc;" horiz-adv-x="665" d="M70 45l112 47q37 14 50.5 30.5t13.5 47.5v1044l-176 72l12 45h502l12 -45l-113 -47q-37 -14 -50 -30.5t-13 -47.5v-1044l176 -72l-12 -45h-502zM82 1636l88 113l41 8l330 -237l-27 -41z" />
<glyph unicode="&#xcd;" horiz-adv-x="665" d="M70 45l112 47q37 14 50.5 30.5t13.5 47.5v1044l-176 72l12 45h502l12 -45l-113 -47q-37 -14 -50 -30.5t-13 -47.5v-1044l176 -72l-12 -45h-502zM115 1520l352 252l84 -107l-8 -41l-402 -145z" />
<glyph unicode="&#xce;" horiz-adv-x="665" d="M45 1530l246 227h82l245 -227l-38 -39l-248 121l-248 -121zM70 45l112 47q37 14 50.5 30.5t13.5 47.5v1044l-176 72l12 45h502l12 -45l-113 -47q-37 -14 -50 -30.5t-13 -47.5v-1044l176 -72l-12 -45h-502z" />
<glyph unicode="&#xcf;" horiz-adv-x="665" d="M16 1611q0 48 32 80.5t80 32.5t81 -32.5t33 -80.5t-33 -80t-81 -32t-80 32t-32 80zM70 45l112 47q37 14 50.5 30.5t13.5 47.5v1044l-176 72l12 45h502l12 -45l-113 -47q-37 -14 -50 -30.5t-13 -47.5v-1044l176 -72l-12 -45h-502zM422 1611q0 48 31.5 80.5t80 32.5 t81 -32.5t32.5 -80.5t-32.5 -80t-81 -32t-80 32t-31.5 80z" />
<glyph unicode="&#xd0;" horiz-adv-x="1447" d="M72 45l112 47q37 14 50.5 30.5t13.5 47.5v440q-57 2 -154 2l-22 25l24 80h152v497l-176 72l12 45q463 16 582 17q684 0 684 -701q0 -365 -194.5 -513t-616.5 -148q-96 0 -455 14zM422 109q80 -8 205 -9q270 0 405 88q127 156 127 439.5t-119 445.5t-344 162h-219 q-55 0 -55 -51v-465l342 14l22 -24l-22 -107q-166 4 -342 6v-499z" />
<glyph unicode="&#xd1;" horiz-adv-x="1515" d="M70 45l112 47q37 14 50.5 30.5t13.5 47.5v1044l-176 72l12 45h342l725 -1032v-4l2 4v915l-176 72l12 45h463l12 -45l-112 -47q-37 -14 -50.5 -30.5t-13.5 -47.5v-1161l-147 -16l-758 1077v-944l176 -72l-12 -45h-463zM438 1534l107 203l41 10q53 0 188 -53.5t170 -53.5h2 l113 97l35 -23l-107 -203l-41 -10q-53 0 -188 53.5t-170 53.5h-2l-113 -97z" />
<glyph unicode="&#xd2;" horiz-adv-x="1443" d="M94 655q0 172 53.5 307.5t143.5 217.5q188 168 453.5 168t435.5 -180.5t170 -495.5q0 -172 -53.5 -306.5t-145.5 -215.5q-184 -166 -450.5 -166t-436.5 178t-170 493zM285 692.5q0 -274.5 115.5 -428t334.5 -153.5q182 0 297 75q127 156 127 439.5t-115.5 437.5 t-332.5 154q-180 0 -299 -76q-127 -174 -127 -448.5zM461 1636l88 113l41 8l330 -237l-27 -41z" />
<glyph unicode="&#xd3;" horiz-adv-x="1443" d="M94 655q0 172 53.5 307.5t143.5 217.5q188 168 453.5 168t435.5 -180.5t170 -495.5q0 -172 -53.5 -306.5t-145.5 -215.5q-184 -166 -450.5 -166t-436.5 178t-170 493zM285 692.5q0 -274.5 115.5 -428t334.5 -153.5q182 0 297 75q127 156 127 439.5t-115.5 437.5 t-332.5 154q-180 0 -299 -76q-127 -174 -127 -448.5zM504 1520l352 252l84 -107l-8 -41l-402 -145z" />
<glyph unicode="&#xd4;" horiz-adv-x="1443" d="M94 655q0 172 53.5 307.5t143.5 217.5q188 168 453.5 168t435.5 -180.5t170 -495.5q0 -172 -53.5 -306.5t-145.5 -215.5q-184 -166 -450.5 -166t-436.5 178t-170 493zM285 692.5q0 -274.5 115.5 -428t334.5 -153.5q182 0 297 75q127 156 127 439.5t-115.5 437.5 t-332.5 154q-180 0 -299 -76q-127 -174 -127 -448.5zM434 1530l246 227h82l246 -227l-39 -39l-248 121l-248 -121z" />
<glyph unicode="&#xd5;" horiz-adv-x="1443" d="M94 655q0 172 53.5 307.5t143.5 217.5q188 168 453.5 168t435.5 -180.5t170 -495.5q0 -172 -53.5 -306.5t-145.5 -215.5q-184 -166 -450.5 -166t-436.5 178t-170 493zM285 692.5q0 -274.5 115.5 -428t334.5 -153.5q182 0 297 75q127 156 127 439.5t-115.5 437.5 t-332.5 154q-180 0 -299 -76q-127 -174 -127 -448.5zM393 1534l107 203l41 10q53 0 188 -53.5t170 -53.5h2l113 97l35 -23l-107 -203l-41 -10q-53 0 -188 53.5t-170 53.5h-2l-113 -97z" />
<glyph unicode="&#xd6;" horiz-adv-x="1443" d="M94 655q0 172 53.5 307.5t143.5 217.5q188 168 453.5 168t435.5 -180.5t170 -495.5q0 -172 -53.5 -306.5t-145.5 -215.5q-184 -166 -450.5 -166t-436.5 178t-170 493zM285 692.5q0 -274.5 115.5 -428t334.5 -153.5q182 0 297 75q127 156 127 439.5t-115.5 437.5 t-332.5 154q-180 0 -299 -76q-127 -174 -127 -448.5zM406 1611q0 48 31.5 80.5t79.5 32.5t81 -32.5t33 -80.5t-33 -80t-81 -32t-79.5 32t-31.5 80zM811 1611q0 48 31.5 80.5t80 32.5t81 -32.5t32.5 -80.5t-32.5 -80t-81 -32t-80 32t-31.5 80z" />
<glyph unicode="&#xd7;" horiz-adv-x="1007" d="M125 965l2 32l74 62l303 -305l299 307l76 -62l2 -32l-291 -301l293 -295l-2 -33l-78 -66l-299 306l-297 -306l-78 64l-2 33l291 297z" />
<glyph unicode="&#xd8;" horiz-adv-x="1441" d="M94 655q0 172 53.5 307.5t143.5 217.5q188 168 446 168q141 0 269 -56l106 189l121 20l22 -24q-14 -25 -145 -246q240 -182 240 -559q0 -172 -53.5 -306.5t-145.5 -215.5q-184 -166 -449 -166q-156 0 -276 57l-92 -166l-121 -20l-23 24l134 227q-230 182 -230 549z M285 683q0 -284 125 -433q244 414 522 911q-98 55 -249.5 55.5t-270.5 -75.5q-127 -174 -127 -458zM500 172q94 -61 256 -61t276 75q127 156 127 452t-135 447q-311 -532 -524 -913z" />
<glyph unicode="&#xd9;" horiz-adv-x="1431" d="M47 1286l12 45h482l2 -45l-103 -47q-37 -14 -50 -30.5t-13 -47.5v-635q0 -199 95 -307t257 -108t260 49q102 109 103 356v698l-177 72l13 45h442l12 -45l-92 -39q-63 -25 -63 -86v-639q0 -289 -119 -413.5t-371 -124.5q-535 0 -534 532v707zM403 1636l89 113l40 8 l330 -237l-26 -41z" />
<glyph unicode="&#xda;" horiz-adv-x="1431" d="M47 1286l12 45h482l2 -45l-103 -47q-37 -14 -50 -30.5t-13 -47.5v-635q0 -199 95 -307t257 -108t260 49q102 109 103 356v698l-177 72l13 45h442l12 -45l-92 -39q-63 -25 -63 -86v-639q0 -289 -119 -413.5t-371 -124.5q-535 0 -534 532v707zM559 1520l352 252l84 -107 l-8 -41l-401 -145z" />
<glyph unicode="&#xdb;" horiz-adv-x="1431" d="M47 1286l12 45h482l2 -45l-103 -47q-37 -14 -50 -30.5t-13 -47.5v-635q0 -199 95 -307t257 -108t260 49q102 109 103 356v698l-177 72l13 45h442l12 -45l-92 -39q-63 -25 -63 -86v-639q0 -289 -119 -413.5t-371 -124.5q-535 0 -534 532v707zM428 1530l246 227h82 l245 -227l-38 -39l-248 121l-248 -121z" />
<glyph unicode="&#xdc;" horiz-adv-x="1431" d="M47 1286l12 45h482l2 -45l-103 -47q-37 -14 -50 -30.5t-13 -47.5v-635q0 -199 95 -307t257 -108t260 49q102 109 103 356v698l-177 72l13 45h442l12 -45l-92 -39q-63 -25 -63 -86v-639q0 -289 -119 -413.5t-371 -124.5q-535 0 -534 532v707zM379 1611q0 48 31.5 80.5 t80 32.5t81 -32.5t32.5 -80.5t-32.5 -80t-81 -32t-80 32t-31.5 80zM825 1611q0 48 32 80.5t80 32.5t81 -32.5t33 -80.5t-33 -80t-81 -32t-80 32t-32 80z" />
<glyph unicode="&#xdd;" horiz-adv-x="1224" d="M-20 1286l12 45h493l13 -45l-97 -47q-45 -20 -45 -49q0 -14 11 -29l278 -413l303 466l-176 72l12 45h459l12 -45l-112 -47q-39 -16 -56.5 -35.5t-31.5 -42.5l-353 -545v-499l177 -72l-13 -45h-501l-13 45l113 47q37 14 50 30.5t13 47.5v440l-405 611zM440 1520l353 252 l84 -107l-9 -41l-401 -145z" />
<glyph unicode="&#xde;" horiz-adv-x="1083" d="M70 45l112 47q37 14 50.5 30.5t13.5 47.5v1044l-176 72l12 45h502l12 -45l-113 -47q-37 -14 -50 -30.5t-13 -47.5v-145q35 2 94 2q264 0 387 -88t123 -264q0 -348 -469 -349q-72 0 -135 7v-207l176 -72l-12 -45h-502zM420 428q53 -8 165.5 -8t194.5 41q53 61 54 186 q-1 266 -263 266h-96q-55 0 -55 -51v-434z" />
<glyph unicode="&#xdf;" horiz-adv-x="1112" d="M47 45l92 39q37 14 50.5 30.5t13.5 47.5v661h-144l-12 45l156 70q2 197 116.5 334t305.5 137q150 0 230.5 -85t80.5 -202q0 -78 -40 -135t-88 -86t-88 -72t-40 -102t59 -102l135 -99q109 -80 152 -138t43 -142q0 -121 -78 -191.5t-196.5 -70.5t-198.5 41t-104 75l83 179 l41 -11l9 -145q59 -33 143 -33q150 0 150 117q0 55 -32 97t-104 95l-114 82q-127 90 -127 226q0 63 30.5 117.5t66.5 83t88 65.5t71 55v29q0 104 -57.5 166.5t-170 62.5t-172.5 -53q-39 -61 -39 -311v-760q0 -78 21 -144l-17 -18h-303z" />
<glyph unicode="&#xe0;" horiz-adv-x="882" d="M78 234.5q0 109.5 107.5 169t377.5 75.5l2 133q2 92 -44 148.5t-126 56.5t-139 -18l-16 -156l-50 -14l-112 159q45 51 135 100.5t215 49.5q305 0 305 -371l-10 -456l141 -50l-12 -45l-174 -32l-41 16l-66 57l-10 4q-133 -78 -243.5 -77.5t-175 71t-64.5 180zM176 1288 l88 113l41 8l330 -238l-27 -41zM236 272q0 -86 47 -120.5t109.5 -34.5t166.5 35l4 237q-262 -14 -325 -90q-2 -10 -2 -27z" />
<glyph unicode="&#xe1;" horiz-adv-x="882" d="M78 234.5q0 109.5 107.5 169t377.5 75.5l2 133q2 92 -44 148.5t-126 56.5t-139 -18l-16 -156l-50 -14l-112 159q45 51 135 100.5t215 49.5q305 0 305 -371l-10 -456l141 -50l-12 -45l-174 -32l-41 16l-66 57l-10 4q-133 -78 -243.5 -77.5t-175 71t-64.5 180zM199 1171 l352 252l84 -106l-8 -41l-402 -146zM236 272q0 -86 47 -120.5t109.5 -34.5t166.5 35l4 237q-262 -14 -325 -90q-2 -10 -2 -27z" />
<glyph unicode="&#xe2;" horiz-adv-x="882" d="M78 234.5q0 109.5 107.5 169t377.5 75.5l2 133q2 92 -44 148.5t-126 56.5t-139 -18l-16 -156l-50 -14l-112 159q45 51 135 100.5t215 49.5q305 0 305 -371l-10 -456l141 -50l-12 -45l-174 -32l-41 16l-66 57l-10 4q-133 -78 -243.5 -77.5t-175 71t-64.5 180zM129 1182 l246 227h82l245 -227l-38 -39l-248 121l-248 -121zM236 272q0 -86 47 -120.5t109.5 -34.5t166.5 35l4 237q-262 -14 -325 -90q-2 -10 -2 -27z" />
<glyph unicode="&#xe3;" horiz-adv-x="882" d="M78 234.5q0 109.5 107.5 169t377.5 75.5l2 133q2 92 -44 148.5t-126 56.5t-139 -18l-16 -156l-50 -14l-112 159q45 51 135 100.5t215 49.5q305 0 305 -371l-10 -456l141 -50l-12 -45l-174 -32l-41 16l-66 57l-10 4q-133 -78 -243.5 -77.5t-175 71t-64.5 180zM88 1186 l107 203l41 10q53 0 188 -53.5t170 -53.5h2l113 97l34 -23l-106 -203l-41 -10q-53 0 -188.5 53.5t-169.5 53.5h-2l-113 -97zM236 272q0 -86 47 -120.5t109.5 -34.5t166.5 35l4 237q-262 -14 -325 -90q-2 -10 -2 -27z" />
<glyph unicode="&#xe4;" horiz-adv-x="882" d="M78 234.5q0 109.5 107.5 169t377.5 75.5l2 133q2 92 -44 148.5t-126 56.5t-139 -18l-16 -156l-50 -14l-112 159q45 51 135 100.5t215 49.5q305 0 305 -371l-10 -456l141 -50l-12 -45l-174 -32l-41 16l-66 57l-10 4q-133 -78 -243.5 -77.5t-175 71t-64.5 180zM100 1262.5 q0 48.5 32 81t80 32.5t81 -32.5t33 -81t-33 -80t-81 -31.5t-80 31.5t-32 80zM236 272q0 -86 47 -120.5t109.5 -34.5t166.5 35l4 237q-262 -14 -325 -90q-2 -10 -2 -27zM506 1262.5q0 48.5 31.5 81t80 32.5t81 -32.5t32.5 -81t-32.5 -80t-81 -31.5t-80 31.5t-31.5 80z" />
<glyph unicode="&#xe5;" horiz-adv-x="882" d="M78 234.5q0 109.5 107.5 169t377.5 75.5l2 133q2 92 -44 148.5t-126 56.5t-139 -18l-16 -156l-50 -14l-112 159q45 51 135 100.5t215 49.5q305 0 305 -371l-10 -456l141 -50l-12 -45l-174 -32l-41 16l-66 57l-10 4q-133 -78 -243.5 -77.5t-175 71t-64.5 180zM209 1275 q0 81 56.5 129t143.5 48t140 -48t53 -128t-57.5 -128t-144.5 -48t-139 47t-52 128zM236 272q0 -86 47 -120.5t109.5 -34.5t166.5 35l4 237q-262 -14 -325 -90q-2 -10 -2 -27zM326 1282q0 -109 88 -108q27 0 41 10q31 23 30 86q0 109 -88 108q-27 0 -41 -10q-30 -23 -30 -86z " />
<glyph unicode="&#xe6;" horiz-adv-x="1388" d="M78 235.5q0 110.5 110.5 172t391.5 86.5l2 118q2 90 -45.5 147.5t-134.5 57.5t-146 -18l-16 -156l-50 -14l-112 159q45 51 138 100.5t220 49.5q190 0 264 -133q113 133 277 133t249 -104.5t85 -280.5v-76l-31 -31l-532 -32q4 -152 80.5 -226.5t193.5 -74.5t242 55l28 -53 q-41 -45 -123 -88t-182 -43q-172 0 -285 122q-178 -123 -358 -122q-131 0 -198.5 70.5t-67.5 181zM238 274q0 -172 180 -172q86 0 157 45l5 252q-274 -20 -340 -98q-2 -11 -2 -27zM750 508l397 33q0 129 -49 199.5t-129 70.5t-138 -29q-23 -27 -35 -45t-28 -79.5t-18 -149.5 z" />
<glyph unicode="&#xe7;" horiz-adv-x="888" d="M78 472q0 214 130 340t316 126q92 0 164 -35t96.5 -61.5t38.5 -53.5l-118 -159l-50 14l-16 156q-45 12 -143.5 12t-167.5 -35q-78 -98 -78 -280.5t86 -281.5t221 -99t252 53l29 -53q-25 -25 -60 -50.5t-111.5 -53t-160.5 -27.5h-2l-6 -123q76 -4 127 -47t51 -118 t-66.5 -129t-158 -54t-123.5 16l-15 20l21 68q47 -18 103.5 -18t99.5 14q18 29 18 72q0 113 -127 112h-22l-23 27l47 166q-160 23 -256 145.5t-96 336.5z" />
<glyph unicode="&#xe8;" horiz-adv-x="931" d="M78 461q0 225 129 351t301 126t260 -101.5t88 -277.5v-67l-31 -31h-573q4 -158 88 -252t216 -94t253 53l29 -53q-25 -25 -60 -50.5t-111.5 -53t-160.5 -27.5q-190 0 -309 126t-119 351zM254 549l438 12q0 246 -207 246q-96 0 -157 -31q-25 -31 -48.5 -98.5t-25.5 -128.5z M258 1288l88 113l41 8l330 -238l-27 -41z" />
<glyph unicode="&#xe9;" horiz-adv-x="931" d="M78 461q0 225 129 351t301 126t260 -101.5t88 -277.5v-67l-31 -31h-573q4 -158 88 -252t216 -94t253 53l29 -53q-25 -25 -60 -50.5t-111.5 -53t-160.5 -27.5q-190 0 -309 126t-119 351zM254 549l438 12q0 246 -207 246q-96 0 -157 -31q-25 -31 -48.5 -98.5t-25.5 -128.5z M270 1171l353 252l84 -106l-9 -41l-401 -146z" />
<glyph unicode="&#xea;" horiz-adv-x="931" d="M78 461q0 225 129 351t301 126t260 -101.5t88 -277.5v-67l-31 -31h-573q4 -158 88 -252t216 -94t253 53l29 -53q-25 -25 -60 -50.5t-111.5 -53t-160.5 -27.5q-190 0 -309 126t-119 351zM201 1182l245 227h82l246 -227l-39 -39l-248 121l-247 -121zM254 549l438 12 q0 246 -207 246q-96 0 -157 -31q-25 -31 -48.5 -98.5t-25.5 -128.5z" />
<glyph unicode="&#xeb;" horiz-adv-x="931" d="M78 461q0 225 129 351t301 126t260 -101.5t88 -277.5v-67l-31 -31h-573q4 -158 88 -252t216 -94t253 53l29 -53q-25 -25 -60 -50.5t-111.5 -53t-160.5 -27.5q-190 0 -309 126t-119 351zM172 1262.5q0 48.5 32 81t80 32.5t80.5 -32.5t32.5 -81t-32.5 -80t-80.5 -31.5 t-80 31.5t-32 80zM254 549l438 12q0 246 -207 246q-96 0 -157 -31q-25 -31 -48.5 -98.5t-25.5 -128.5zM578 1262.5q0 48.5 31.5 81t79.5 32.5t81 -32.5t33 -81t-33 -80t-81 -31.5t-79.5 31.5t-31.5 80z" />
<glyph unicode="&#xec;" horiz-adv-x="555" d="M-20 1288l88 113l41 8l329 -238l-26 -41zM49 45l92 39q37 14 50.5 30.5t13.5 47.5v612l-144 23l-12 45l281 96l41 -16v-811l161 -66l-12 -45h-459z" />
<glyph unicode="&#xed;" horiz-adv-x="555" d="M33 1171l352 252l84 -106l-8 -41l-402 -146zM49 45l92 39q37 14 50.5 30.5t13.5 47.5v612l-144 23l-12 45l281 96l41 -16v-811l161 -66l-12 -45h-459z" />
<glyph unicode="&#xee;" horiz-adv-x="555" d="M14 1182l246 227h82l246 -227l-39 -39l-248 121l-248 -121zM49 45l92 39q37 14 50.5 30.5t13.5 47.5v612l-144 23l-12 45l281 96l41 -16v-811l161 -66l-12 -45h-459z" />
<glyph unicode="&#xef;" horiz-adv-x="555" d="M-25 1262.5q0 48.5 32 81t80 32.5t81 -32.5t33 -81t-33 -80t-81 -31.5t-80 31.5t-32 80zM49 45l92 39q37 14 50.5 30.5t13.5 47.5v612l-144 23l-12 45l281 96l41 -16v-811l161 -66l-12 -45h-459zM360 1262.5q0 48.5 32 81t80 32.5t81 -32.5t33 -81t-33 -80t-81 -31.5 t-80 31.5t-32 80z" />
<glyph unicode="&#xf0;" horiz-adv-x="1056" d="M78 470q0 226 134 347t312 121q111 0 199 -55q-68 168 -211 291q-14 -20 -34.5 -46t-33.5 -43l-18 -24l-33 -4l-63 61l88 127q-31 23 -86.5 58.5t-59.5 37.5l37 68q92 -35 170 -76l80 109l35 4l78 -70q-41 -51 -86 -108q170 -111 272.5 -301.5t102.5 -417.5 q0 -295 -127 -430t-326 -135t-314.5 130t-115.5 356zM252 486.5q0 -169.5 68.5 -270.5t197.5 -101q98 0 172 30q84 107 94 314q2 35 2 107.5t-20 166.5q-115 78 -241 78t-197 -49q-76 -106 -76 -275.5z" />
<glyph unicode="&#xf1;" horiz-adv-x="1120" d="M49 45l92 39q37 14 50.5 30.5t13.5 47.5v612l-144 23l-12 45l264 96l41 -16l4 -58l9 -4q141 78 290 78q295 0 295 -313v-514l162 -66l-12 -45h-459l-12 45l92 39q37 14 50 30.5t13 47.5v438q0 104 -48 150.5t-154.5 46.5t-212.5 -27v-659l161 -66l-12 -45h-459zM238 1186 l106 203l41 10q53 0 188 -53.5t170 -53.5h2l113 97l35 -23l-107 -203l-41 -10q-53 0 -188 53.5t-170 53.5h-2l-113 -97z" />
<glyph unicode="&#xf2;" d="M78 461.5q0 228.5 131 352.5t321.5 124t309 -125t118.5 -353.5t-131 -352t-321.5 -123.5t-309 124.5t-118.5 353zM252 483q0 -369 280 -368q102 0 177 30q76 98 75 293q0 369 -280 369q-102 0 -176 -31q-76 -98 -76 -293zM268 1288l88 113l41 8l330 -238l-27 -41z" />
<glyph unicode="&#xf3;" d="M78 461.5q0 228.5 131 352.5t321.5 124t309 -125t118.5 -353.5t-131 -352t-321.5 -123.5t-309 124.5t-118.5 353zM252 483q0 -369 280 -368q102 0 177 30q76 98 75 293q0 369 -280 369q-102 0 -176 -31q-76 -98 -76 -293zM301 1171l352 252l84 -106l-8 -41l-401 -146z " />
<glyph unicode="&#xf4;" d="M78 461.5q0 228.5 131 352.5t321.5 124t309 -125t118.5 -353.5t-131 -352t-321.5 -123.5t-309 124.5t-118.5 353zM221 1182l246 227h82l246 -227l-39 -39l-248 121l-248 -121zM252 483q0 -369 280 -368q102 0 177 30q76 98 75 293q0 369 -280 369q-102 0 -176 -31 q-76 -98 -76 -293z" />
<glyph unicode="&#xf5;" d="M78 461.5q0 228.5 131 352.5t321.5 124t309 -125t118.5 -353.5t-131 -352t-321.5 -123.5t-309 124.5t-118.5 353zM180 1186l107 203l41 10q53 0 188 -53.5t170 -53.5h2l113 97l35 -23l-107 -203l-41 -10q-53 0 -188 53.5t-170 53.5h-2l-113 -97zM252 483q0 -369 280 -368 q102 0 177 30q76 98 75 293q0 369 -280 369q-102 0 -176 -31q-76 -98 -76 -293z" />
<glyph unicode="&#xf6;" d="M78 461.5q0 228.5 131 352.5t321.5 124t309 -125t118.5 -353.5t-131 -352t-321.5 -123.5t-309 124.5t-118.5 353zM193 1262.5q0 48.5 31.5 81t79.5 32.5t81 -32.5t33 -81t-33 -80t-81 -31.5t-79.5 31.5t-31.5 80zM252 483q0 -369 280 -368q102 0 177 30q76 98 75 293 q0 369 -280 369q-102 0 -176 -31q-76 -98 -76 -293zM598 1262.5q0 48.5 32 81t80 32.5t80.5 -32.5t32.5 -81t-32.5 -80t-80.5 -31.5t-80 31.5t-32 80z" />
<glyph unicode="&#xf7;" horiz-adv-x="1071" d="M96 633l25 92l829 4l23 -24l-23 -101q-768 4 -831 4zM428 352q0 45 30.5 76t76 31t76 -31t30.5 -76t-30.5 -75.5t-77 -30.5t-76 30.5t-29.5 75.5zM428 980q0 46 30.5 76.5t76 30.5t76 -30.5t30.5 -75.5t-30.5 -76t-77 -31t-76 30t-29.5 76z" />
<glyph unicode="&#xf8;" d="M78 443.5q0 246.5 130 370.5t320 124q98 0 181 -35l73 137l113 25l25 -23l-117 -196q156 -125 155.5 -370t-131.5 -368.5t-321 -123.5q-92 0 -170 30l-82 -153l-113 -25l-24 23l123 209q-162 129 -162 375.5zM252 491.5q0 -186.5 70 -280.5q184 322 317 565 q-57 31 -147 31t-164 -31q-76 -98 -76 -284.5zM406 139q53 -25 141 -24.5t162 30.5q76 98 75.5 281.5t-63.5 273.5q-245 -432 -315 -561z" />
<glyph unicode="&#xf9;" horiz-adv-x="1093" d="M14 842l281 96l41 -16v-600q0 -104 48 -150.5t154.5 -46.5t213.5 27v622l-144 23l-12 45l281 96l41 -16v-811l141 -50l-12 -45l-175 -32l-41 16l-65 57l-10 4q-141 -77 -291 -77q-295 0 -295 313v477l-143 23zM252 1288l88 113l41 8l330 -238l-27 -41z" />
<glyph unicode="&#xfa;" horiz-adv-x="1093" d="M14 842l281 96l41 -16v-600q0 -104 48 -150.5t154.5 -46.5t213.5 27v622l-144 23l-12 45l281 96l41 -16v-811l141 -50l-12 -45l-175 -32l-41 16l-65 57l-10 4q-141 -77 -291 -77q-295 0 -295 313v477l-143 23zM346 1171l352 252l84 -106l-8 -41l-401 -146z" />
<glyph unicode="&#xfb;" horiz-adv-x="1093" d="M14 842l281 96l41 -16v-600q0 -104 48 -150.5t154.5 -46.5t213.5 27v622l-144 23l-12 45l281 96l41 -16v-811l141 -50l-12 -45l-175 -32l-41 16l-65 57l-10 4q-141 -77 -291 -77q-295 0 -295 313v477l-143 23zM236 1182l245 227h82l246 -227l-39 -39l-248 121l-248 -121z " />
<glyph unicode="&#xfc;" horiz-adv-x="1093" d="M14 842l281 96l41 -16v-600q0 -104 48 -150.5t154.5 -46.5t213.5 27v622l-144 23l-12 45l281 96l41 -16v-811l141 -50l-12 -45l-175 -32l-41 16l-65 57l-10 4q-141 -77 -291 -77q-295 0 -295 313v477l-143 23zM207 1262.5q0 48.5 31.5 81t80 32.5t81 -32.5t32.5 -81 t-32.5 -80t-81 -31.5t-80 31.5t-31.5 80zM612 1262.5q0 48.5 32 81t80 32.5t81 -32.5t33 -81t-33 -80t-81 -31.5t-80 31.5t-32 80z" />
<glyph unicode="&#xfd;" horiz-adv-x="1067" d="M-12 877l12 45h451l12 -45l-92 -39q-39 -16 -39 -44t10 -51l223 -526l230 594l-146 66l13 45h397l12 -45l-100 -43q-39 -16 -58 -52q-4 -12 -14 -39l-291 -718q-141 -348 -250 -512l-153 49l-17 41q215 231 289 395l-344 813zM352 1171l353 252l83 -106l-8 -41l-401 -146 z" />
<glyph unicode="&#xfe;" d="M-14 -422l92 39q37 14 50 30.5t13 47.5v1550l-143 23l-12 45l276 96l41 -16v-523l4 -6v-2q138 76 281 76q180 0 275 -137t95 -353.5t-130 -340t-324 -123.5q-94 0 -197 18v-358l162 -66l-12 -45h-459zM307 143q82 -29 202 -28.5t200 30.5q76 100 75 293q0 358 -270 359 q-100 0 -207 -27v-627z" />
<glyph unicode="&#xff;" horiz-adv-x="1067" d="M-12 877l12 45h451l12 -45l-92 -39q-39 -16 -39 -44t10 -51l223 -526l230 594l-146 66l13 45h397l12 -45l-100 -43q-39 -16 -58 -52q-4 -12 -14 -39l-291 -718q-141 -348 -250 -512l-153 49l-17 41q215 231 289 395l-344 813zM233 1262.5q0 48.5 32 81t80 32.5t81 -32.5 t33 -81t-33 -80t-81 -31.5t-80 31.5t-32 80zM639 1262.5q0 48.5 31.5 81t80 32.5t81 -32.5t32.5 -81t-32.5 -80t-81 -31.5t-80 31.5t-31.5 80z" />
<glyph unicode="&#x152;" horiz-adv-x="2029" d="M94 655q0 227 94 387q176 303 549 304q266 0 422 -181v146l21 20h747v-280l-61 -15l-99 181l-378 8q-55 0 -56 -62v-442q195 0 396 18l65 6l23 -24l-23 -115q-244 14 -461 15v-515l445 9l98 180l61 -14v-281h-757l-21 20v158q-168 -195 -447.5 -194.5t-448.5 179.5 t-169 492zM285 692.5q0 -274.5 115.5 -428t334.5 -153.5q182 0 297 75q68 90 92.5 168t32.5 240l2 35v41q0 236 -115.5 391.5t-334.5 155.5q-178 0 -297 -76q-127 -174 -127 -448.5z" />
<glyph unicode="&#x153;" horiz-adv-x="1638" d="M78 462q0 226 130 351t312 125q119 0 215 -52t142 -141q49 88 148 140.5t210 52.5q154 0 241 -102.5t87 -276.5v-67l-31 -31h-574q4 -158 88 -252t216.5 -94t253.5 53l28 -53q-55 -61 -149.5 -96t-192.5 -35t-195.5 52t-140.5 138q-47 -86 -148.5 -138t-219.5 -52 q-183 0 -301.5 126t-118.5 352zM252 483q0 -369 280 -368q102 0 177 30q76 96 75 287v23q-6 352 -280 352q-102 0 -176 -31q-76 -98 -76 -293zM961 549l438 12q0 246 -207 246q-96 0 -158 -31q-25 -31 -48 -98.5t-25 -128.5z" />
<glyph unicode="&#x178;" horiz-adv-x="1224" d="M-20 1286l12 45h493l13 -45l-97 -47q-45 -20 -45 -49q0 -14 11 -29l278 -413l303 466l-176 72l12 45h459l12 -45l-112 -47q-39 -16 -56.5 -35.5t-31.5 -42.5l-353 -545v-499l177 -72l-13 -45h-501l-13 45l113 47q37 14 50 30.5t13 47.5v440l-405 611zM281 1611 q0 48 31.5 80.5t79.5 32.5t81 -32.5t33 -80.5t-33 -80t-81 -32t-79.5 32t-31.5 80zM727 1611q0 48 32 80.5t80 32.5t80.5 -32.5t32.5 -80.5t-32.5 -80t-80.5 -32t-80 32t-32 80z" />
<glyph unicode="&#x2c6;" horiz-adv-x="737" d="M82 1182l246 227h82l245 -227l-39 -39l-247 121l-248 -121z" />
<glyph unicode="&#x2dc;" horiz-adv-x="813" d="M76 1186l106 203l41 10q53 0 188.5 -53.5t170.5 -53.5h2l112 97l35 -23l-106 -203l-41 -10q-53 0 -188.5 53.5t-170.5 53.5h-2l-112 -97z" />
<glyph unicode="&#x2000;" horiz-adv-x="900" />
<glyph unicode="&#x2001;" horiz-adv-x="1800" />
<glyph unicode="&#x2002;" horiz-adv-x="900" />
<glyph unicode="&#x2003;" horiz-adv-x="1800" />
<glyph unicode="&#x2004;" horiz-adv-x="600" />
<glyph unicode="&#x2005;" horiz-adv-x="450" />
<glyph unicode="&#x2006;" horiz-adv-x="300" />
<glyph unicode="&#x2007;" horiz-adv-x="300" />
<glyph unicode="&#x2008;" horiz-adv-x="225" />
<glyph unicode="&#x2009;" horiz-adv-x="360" />
<glyph unicode="&#x200a;" horiz-adv-x="100" />
<glyph unicode="&#x2010;" horiz-adv-x="815" d="M123 444l24 80q213 0 447 13l78 4l22 -25l-22 -106q-465 10 -527 10z" />
<glyph unicode="&#x2011;" horiz-adv-x="815" d="M123 444l24 80q213 0 447 13l78 4l22 -25l-22 -106q-465 10 -527 10z" />
<glyph unicode="&#x2012;" horiz-adv-x="815" d="M123 444l24 80q213 0 447 13l78 4l22 -25l-22 -106q-465 10 -527 10z" />
<glyph unicode="&#x2013;" horiz-adv-x="1230" d="M129 444l25 80q451 0 800 13l133 6l23 -25l-23 -115q-811 16 -935 17z" />
<glyph unicode="&#x2014;" horiz-adv-x="1808" d="M127 444l25 80q616 0 1292 17l225 4l23 -25l-23 -123q-1335 23 -1519 23z" />
<glyph unicode="&#x2018;" horiz-adv-x="411" d="M96 1139.5q0 70.5 60.5 146.5t148.5 123l33 -37q-117 -92 -117 -184t94 -156l7 -41l-115 -53h-41q-27 27 -48.5 79t-21.5 122.5z" />
<glyph unicode="&#x2019;" horiz-adv-x="417" d="M96 975q117 92 117 184t-94 156l-6 41l114 53h41q27 -27 48.5 -79t21.5 -122.5t-60.5 -146.5t-148.5 -123z" />
<glyph unicode="&#x201a;" horiz-adv-x="432" d="M88 -223q117 92 117 184t-94 156l-7 41l115 53h41q27 -27 48.5 -79t21.5 -122.5t-60.5 -146.5t-148.5 -123z" />
<glyph unicode="&#x201c;" horiz-adv-x="739" d="M96 1139.5q0 70.5 60.5 146.5t148.5 123l33 -37q-117 -92 -117 -184t94 -156l7 -41l-115 -53h-41q-27 27 -48.5 79t-21.5 122.5zM424 1139.5q0 70.5 60.5 146.5t148.5 123l33 -37q-117 -92 -117 -184t94 -156l6 -41l-114 -53h-41q-27 27 -48.5 79t-21.5 122.5z" />
<glyph unicode="&#x201d;" horiz-adv-x="745" d="M96 975q117 92 117 184t-94 156l-6 41l114 53h41q27 -27 48.5 -79t21.5 -122.5t-60.5 -146.5t-148.5 -123zM424 975q117 92 117 184t-95 156l-6 41l115 53h41q27 -27 48.5 -79t21.5 -122.5t-60.5 -146.5t-148.5 -123z" />
<glyph unicode="&#x201e;" horiz-adv-x="759" d="M88 -223q117 92 117 184t-94 156l-7 41l115 53h41q27 -27 48.5 -79t21.5 -122.5t-60.5 -146.5t-148.5 -123zM416 -223q117 92 116.5 184t-94.5 156l-6 41l115 53h41q26 -27 47.5 -79t21.5 -122.5t-60 -146.5t-148 -123z" />
<glyph unicode="&#x2022;" horiz-adv-x="686" d="M156 650q0 81 53 135.5t133 54.5t134 -54.5t54 -134.5t-54 -133t-135 -53t-133 52t-52 133z" />
<glyph unicode="&#x2026;" horiz-adv-x="1298" d="M106 95q0 48 32 81t80 33t81 -33t33 -81t-33 -79.5t-81 -31.5t-80 31.5t-32 79.5zM537 95q0 48 31.5 81t79.5 33t81 -33t33 -81t-33 -79.5t-81 -31.5t-79.5 31.5t-31.5 79.5zM967 95q0 48 31.5 81t79.5 33t81 -33t33 -81t-33 -79.5t-81 -31.5t-79.5 31.5t-31.5 79.5z" />
<glyph unicode="&#x202f;" horiz-adv-x="360" />
<glyph unicode="&#x2039;" horiz-adv-x="632" d="M61 430v62l424 411l74 -65l-289 -377l289 -377l-74 -66z" />
<glyph unicode="&#x203a;" horiz-adv-x="632" d="M74 84l288 377l-288 377l73 65l424 -411v-62l-424 -412z" />
<glyph unicode="&#x205f;" horiz-adv-x="450" />
<glyph unicode="&#x20ac;" horiz-adv-x="1247" d="M63 489l25 80h842l22 -24l-22 -88q-258 4 -506 6q51 -160 163 -240t251 -80q78 0 167 22.5t123 41.5l29 -57q-41 -41 -150.5 -83t-232.5 -42q-195 0 -340 115.5t-196 324.5h-152zM82 715l22 82h123q43 246 206 378t364 132q98 0 183 -36t119 -68t40 -46l-105 -178l-45 12 l-10 168q-72 25 -194.5 25t-221.5 -43q-135 -117 -168 -344l574 8l20 -25l-20 -88h-867z" />
<glyph unicode="&#x2122;" horiz-adv-x="1318" d="M139 1210v121h381v-121l-43 -6l-35 64h-65v-334l59 -14l-6 -43h-205l-4 43l62 14v334h-72q-23 -41 -33 -64zM551 920l59 14l-2 340l-57 12v45h180l19 -12l127 -305l137 317h174l4 -45l-62 -12v-340l60 -14l-2 -43h-197l-4 45l49 14v250h-6l-129 -295l-47 -14l-29 8 l-139 319h-4v-270l49 -12l-4 -45h-170z" />
<glyph unicode="&#x25fc;" horiz-adv-x="921" d="M0 0v922h922v-922h-922z" />
</font>
</defs>
</svg>
